<svg width="181" height="52" viewBox="0 0 181 52" fill="none" xmlns="http://www.w3.org/2000/svg">
<g clip-path="url(#clip0_1401_8685)">
<path d="M173.581 1.04162C176.668 1.04162 179.179 3.4905 179.179 6.5V45.5C179.179 48.5095 176.668 50.9584 173.581 50.9584H6.91423C3.82756 50.9584 1.31589 48.5095 1.31589 45.5V6.5C1.31589 3.4905 3.82756 1.04162 6.91423 1.04162H173.581ZM173.581 2.74817e-06H6.91423C3.24923 2.74817e-06 0.247559 2.92663 0.247559 6.5V45.5C0.247559 49.0734 3.24923 52 6.91423 52H173.581C177.246 52 180.248 49.0734 180.248 45.5V6.5C180.248 2.92663 177.246 2.74817e-06 173.581 2.74817e-06Z" fill="#A6A6A6"/>
<path d="M40.418 25.7191C40.3794 21.5292 43.9367 19.4908 44.0993 19.3959C42.0847 16.532 38.962 16.1407 37.8647 16.1095C35.242 15.8404 32.698 17.6396 31.362 17.6396C29.9994 17.6396 27.942 16.1355 25.7247 16.1797C22.8713 16.2226 20.202 17.8333 18.738 20.3345C15.7167 25.4344 17.97 32.9289 20.8647 37.0512C22.3127 39.0701 24.0047 41.3243 26.2194 41.245C28.386 41.1579 29.1954 39.8982 31.81 39.8982C34.4007 39.8982 35.1607 41.245 37.4193 41.1943C39.7447 41.1579 41.2087 39.1663 42.606 37.1292C44.2793 34.8152 44.9514 32.5363 44.978 32.4193C44.9234 32.4011 40.462 30.741 40.418 25.7191Z" fill="#646468"/>
<path d="M36.1514 13.3977C37.3167 11.9768 38.114 10.0437 37.8927 8.08203C36.206 8.15483 34.0967 9.21953 32.882 10.6092C31.8074 11.8338 30.8474 13.841 31.0954 15.7286C32.99 15.8664 34.9354 14.7965 36.1514 13.3977Z" fill="#646468"/>
<path d="M71.7744 40.9552H68.7464L67.0878 35.8735H61.3224L59.7424 40.9552H56.7944L62.5064 23.6548H66.0344L71.7744 40.9552ZM66.5878 33.7415L65.0878 29.224C64.9291 28.7625 64.6318 27.6757 64.1931 25.9649H64.1398C63.9651 26.7007 63.6838 27.7875 63.2971 29.224L61.8238 33.7415H66.5878Z" fill="#646468"/>
<path d="M86.4639 34.5647C86.4639 36.6863 85.8759 38.3633 84.6999 39.5944C83.6466 40.6903 82.3386 41.2376 80.7772 41.2376C79.0919 41.2376 77.8812 40.6474 77.1439 39.467H77.0906V46.0385H74.2479V32.5874C74.2479 31.2536 74.2119 29.8847 74.1426 28.4807H76.6426L76.8012 30.458H76.8546C77.8026 28.9682 79.2412 28.2246 81.1719 28.2246C82.6812 28.2246 83.9412 28.8057 84.9492 29.9692C85.9599 31.134 86.4639 32.6654 86.4639 34.5647ZM83.5679 34.6661C83.5679 33.4519 83.2879 32.4509 82.7252 31.6631C82.1106 30.8415 81.2852 30.4307 80.2506 30.4307C79.5492 30.4307 78.9119 30.6595 78.3426 31.1106C77.7719 31.5656 77.3986 32.1597 77.2239 32.8955C77.1359 33.2387 77.0919 33.5195 77.0919 33.7405V35.8205C77.0919 36.7279 77.3772 37.4936 77.9479 38.1189C78.5186 38.7442 79.2599 39.0562 80.1719 39.0562C81.2426 39.0562 82.0759 38.6532 82.6719 37.8498C83.2692 37.0451 83.5679 35.9843 83.5679 34.6661Z" fill="#646468"/>
<path d="M101.18 34.5647C101.18 36.6863 100.592 38.3633 99.4145 39.5944C98.3625 40.6903 97.0545 41.2376 95.4932 41.2376C93.8079 41.2376 92.5972 40.6474 91.8612 39.467H91.8079V46.0385H88.9652V32.5874C88.9652 31.2536 88.9292 29.8847 88.8599 28.4807H91.3599L91.5185 30.458H91.5719C92.5185 28.9682 93.9572 28.2246 95.8892 28.2246C97.3972 28.2246 98.6572 28.8057 99.6679 29.9692C100.675 31.134 101.18 32.6654 101.18 34.5647ZM98.2839 34.6661C98.2839 33.4519 98.0025 32.4509 97.4399 31.6631C96.8252 30.8415 96.0025 30.4307 94.9665 30.4307C94.2639 30.4307 93.6279 30.6595 93.0572 31.1106C92.4865 31.5656 92.1145 32.1597 91.9399 32.8955C91.8532 33.2387 91.8079 33.5195 91.8079 33.7405V35.8205C91.8079 36.7279 92.0932 37.4936 92.6612 38.1189C93.2319 38.7429 93.9732 39.0562 94.8879 39.0562C95.9585 39.0562 96.7919 38.6532 97.3879 37.8498C97.9852 37.0451 98.2839 35.9843 98.2839 34.6661Z" fill="#646468"/>
<path d="M117.633 36.1037C117.633 37.5753 117.109 38.7726 116.057 39.6969C114.901 40.707 113.292 41.2114 111.224 41.2114C109.314 41.2114 107.784 40.8526 106.625 40.1337L107.284 37.8236C108.532 38.5594 109.901 38.9286 111.393 38.9286C112.464 38.9286 113.297 38.692 113.896 38.2214C114.492 37.7508 114.789 37.119 114.789 36.3312C114.789 35.6292 114.544 35.0377 114.052 34.558C113.562 34.0783 112.745 33.6324 111.604 33.2203C108.497 32.0906 106.945 30.4357 106.945 28.2595C106.945 26.8373 107.489 25.6712 108.578 24.7638C109.664 23.8551 111.112 23.4014 112.922 23.4014C114.537 23.4014 115.878 23.6757 116.949 24.223L116.238 26.4824C115.238 25.952 114.108 25.6868 112.842 25.6868C111.842 25.6868 111.061 25.9273 110.501 26.4057C110.028 26.8334 109.79 27.3547 109.79 27.9722C109.79 28.656 110.061 29.2215 110.605 29.6661C111.078 30.0769 111.938 30.5215 113.186 31.0012C114.713 31.6005 115.834 32.3012 116.556 33.1046C117.274 33.9054 117.633 34.9077 117.633 36.1037Z" fill="#646468"/>
<path d="M127.032 30.5604H123.898V36.6171C123.898 38.1576 124.45 38.9272 125.557 38.9272C126.065 38.9272 126.486 38.8843 126.82 38.7985L126.898 40.9032C126.338 41.1073 125.601 41.21 124.688 41.21C123.565 41.21 122.688 40.8759 122.054 40.209C121.424 39.5408 121.106 38.4202 121.106 36.8459V30.5578H119.24V28.4778H121.106V26.1937L123.898 25.3721V28.4778H127.032V30.5604Z" fill="#646468"/>
<path d="M141.169 34.6151C141.169 36.5326 140.607 38.1069 139.484 39.338C138.307 40.6055 136.744 41.2373 134.796 41.2373C132.919 41.2373 131.424 40.6302 130.309 39.416C129.195 38.2018 128.637 36.6691 128.637 34.8218C128.637 32.8887 129.211 31.3053 130.361 30.0742C131.509 28.8418 133.059 28.2256 135.007 28.2256C136.884 28.2256 138.395 28.8327 139.535 30.0482C140.625 31.2273 141.169 32.7496 141.169 34.6151ZM138.22 34.7048C138.22 33.5543 137.968 32.5676 137.457 31.7447C136.861 30.7489 136.009 30.2523 134.905 30.2523C133.763 30.2523 132.895 30.7502 132.299 31.7447C131.788 32.5689 131.536 33.5712 131.536 34.7568C131.536 35.9073 131.788 36.894 132.299 37.7156C132.913 38.7114 133.772 39.208 134.88 39.208C135.965 39.208 136.817 38.701 137.432 37.6896C137.956 36.8511 138.22 35.854 138.22 34.7048Z" fill="#646468"/>
<path d="M150.409 30.9182C150.128 30.8675 149.828 30.8415 149.513 30.8415C148.513 30.8415 147.74 31.2094 147.196 31.9465C146.723 32.5965 146.485 33.4181 146.485 34.41V40.9555H143.644L143.671 32.4093C143.671 30.9715 143.635 29.6624 143.564 28.482H146.04L146.144 30.8688H146.223C146.523 30.0485 146.996 29.3881 147.644 28.8928C148.277 28.4469 148.961 28.2246 149.699 28.2246C149.961 28.2246 150.199 28.2428 150.409 28.2753V30.9182Z" fill="#646468"/>
<path d="M163.123 34.1279C163.123 34.6245 163.089 35.0431 163.019 35.385H154.491C154.524 36.6174 154.936 37.5599 155.728 38.2099C156.447 38.791 157.376 39.0822 158.517 39.0822C159.78 39.0822 160.932 38.8859 161.968 38.492L162.413 40.416C161.203 40.9308 159.773 41.1869 158.124 41.1869C156.14 41.1869 154.583 40.6175 153.449 39.48C152.319 38.3425 151.752 36.815 151.752 34.8988C151.752 33.0177 152.279 31.4512 153.333 30.2019C154.437 28.8681 155.929 28.2012 157.807 28.2012C159.651 28.2012 161.047 28.8681 161.995 30.2019C162.745 31.2614 163.123 32.5718 163.123 34.1279ZM160.412 33.409C160.431 32.5874 160.245 31.8776 159.86 31.2783C159.368 30.5074 158.612 30.1226 157.595 30.1226C156.665 30.1226 155.909 30.4983 155.332 31.2523C154.859 31.8516 154.577 32.5705 154.491 33.4077H160.412V33.409Z" fill="#646468"/>
<path d="M62.3844 10.1511C62.3844 10.6311 62.2211 11.0178 61.8944 11.3111C61.5678 11.5978 61.1411 11.7811 60.6144 11.8611V11.8911C61.2478 11.9644 61.7311 12.1478 62.0644 12.4411C62.4044 12.7344 62.5744 13.1178 62.5744 13.5911C62.5744 14.2178 62.3244 14.7311 61.8244 15.1311C61.3244 15.5244 60.5878 15.7211 59.6144 15.7211C58.6411 15.7211 57.8578 15.5911 57.2644 15.3311V14.2311C57.5711 14.3778 57.9244 14.4944 58.3244 14.5811C58.7244 14.6611 59.0944 14.7011 59.4344 14.7011C60.0678 14.7011 60.5344 14.6011 60.8344 14.4011C61.1344 14.1944 61.2844 13.9044 61.2844 13.5311C61.2844 13.1444 61.0811 12.8644 60.6744 12.6911C60.2744 12.5111 59.7278 12.4211 59.0344 12.4211H58.2344V11.4111H58.9644C59.7644 11.4111 60.3211 11.3144 60.6344 11.1211C60.9544 10.9278 61.1144 10.6644 61.1144 10.3311C61.1144 10.0444 60.9944 9.82109 60.7544 9.66109C60.5211 9.49443 60.1911 9.41109 59.7644 9.41109C59.3644 9.41109 59.0078 9.46776 58.6944 9.58109C58.3811 9.68776 58.0844 9.82776 57.8044 10.0011L57.2344 9.14109C57.5678 8.91443 57.9511 8.73109 58.3844 8.59109C58.8178 8.45109 59.3211 8.38109 59.8944 8.38109C60.6878 8.38109 61.3011 8.54776 61.7344 8.88109C62.1678 9.21443 62.3844 9.63776 62.3844 10.1511ZM65.5861 10.1011C66.2861 10.1011 66.8161 10.2544 67.1761 10.5611C67.5428 10.8678 67.7261 11.3411 67.7261 11.9811V15.6211H66.8361L66.5861 14.8711H66.5461C66.3128 15.1644 66.0661 15.3811 65.8061 15.5211C65.5461 15.6544 65.1928 15.7211 64.7461 15.7211C64.2595 15.7211 63.8561 15.5844 63.5361 15.3111C63.2161 15.0378 63.0561 14.6144 63.0561 14.0411C63.0561 13.4811 63.2595 13.0611 63.6661 12.7811C64.0795 12.5011 64.7028 12.3444 65.5361 12.3111L66.4761 12.2811V12.0111C66.4761 11.6711 66.3928 11.4278 66.2261 11.2811C66.0595 11.1278 65.8261 11.0511 65.5261 11.0511C65.2528 11.0511 64.9895 11.0911 64.7361 11.1711C64.4895 11.2511 64.2428 11.3444 63.9961 11.4511L63.5961 10.5711C63.8628 10.4311 64.1661 10.3178 64.5061 10.2311C64.8528 10.1444 65.2128 10.1011 65.5861 10.1011ZM65.8161 13.0811C65.2628 13.1011 64.8795 13.1978 64.6661 13.3711C64.4528 13.5378 64.3461 13.7644 64.3461 14.0511C64.3461 14.3111 64.4195 14.4978 64.5661 14.6111C64.7195 14.7178 64.9195 14.7711 65.1661 14.7711C65.5328 14.7711 65.8428 14.6678 66.0961 14.4611C66.3495 14.2478 66.4761 13.9344 66.4761 13.5211V13.0611L65.8161 13.0811ZM72.4567 10.2011V11.1711H70.1367V15.6211H68.8767V10.2011H72.4567ZM75.9078 10.1011C76.5411 10.1011 77.0511 10.3378 77.4378 10.8111C77.8245 11.2778 78.0178 11.9744 78.0178 12.9011C78.0178 13.8278 77.8178 14.5311 77.4178 15.0111C77.0245 15.4844 76.5111 15.7211 75.8778 15.7211C75.4778 15.7211 75.1545 15.6478 74.9078 15.5011C74.6611 15.3544 74.4645 15.1844 74.3178 14.9911H74.2378C74.2578 15.1178 74.2745 15.2578 74.2878 15.4111C74.3078 15.5578 74.3178 15.6944 74.3178 15.8211V18.0211H73.0578V10.2011H74.0778L74.2578 10.9211H74.3178C74.4645 10.6944 74.6645 10.5011 74.9178 10.3411C75.1711 10.1811 75.5011 10.1011 75.9078 10.1011ZM75.5478 11.1211C75.1011 11.1211 74.7845 11.2544 74.5978 11.5211C74.4178 11.7878 74.3245 12.1911 74.3178 12.7311V12.8911C74.3178 13.4711 74.4045 13.9178 74.5778 14.2311C74.7578 14.5378 75.0878 14.6911 75.5678 14.6911C75.9611 14.6911 76.2511 14.5311 76.4378 14.2111C76.6311 13.8844 76.7278 13.4411 76.7278 12.8811C76.7278 12.3211 76.6311 11.8878 76.4378 11.5811C76.2511 11.2744 75.9545 11.1211 75.5478 11.1211ZM77.9816 10.2011H79.3516L80.4316 13.2611C80.5049 13.4544 80.5649 13.6444 80.6116 13.8311C80.6583 14.0178 80.6916 14.2078 80.7116 14.4011H80.7516C80.7783 14.2344 80.8183 14.0511 80.8716 13.8511C80.9249 13.6511 80.9849 13.4544 81.0516 13.2611L82.0916 10.2011H83.4516L81.1416 16.3411C80.9349 16.8811 80.6516 17.2944 80.2916 17.5811C79.9383 17.8744 79.5016 18.0211 78.9816 18.0211C78.8149 18.0211 78.6716 18.0111 78.5516 17.9911C78.4316 17.9778 78.3249 17.9611 78.2316 17.9411V16.9411C78.3049 16.9544 78.3916 16.9678 78.4916 16.9811C78.5983 16.9944 78.7083 17.0011 78.8216 17.0011C79.1349 17.0011 79.3816 16.9078 79.5616 16.7211C79.7483 16.5411 79.8916 16.3144 79.9916 16.0411L80.1516 15.6011L77.9816 10.2011ZM85.6021 10.1011C86.0021 10.1011 86.3654 10.1544 86.6921 10.2611C87.0187 10.3611 87.2787 10.5178 87.4721 10.7311C87.6654 10.9444 87.7621 11.2111 87.7621 11.5311C87.7621 11.8578 87.6654 12.1178 87.4721 12.3111C87.2787 12.5044 87.0221 12.6444 86.7021 12.7311V12.7811C86.9221 12.8344 87.1254 12.9111 87.3121 13.0111C87.4987 13.1111 87.6454 13.2478 87.7521 13.4211C87.8654 13.5878 87.9221 13.8044 87.9221 14.0711C87.9221 14.3711 87.8321 14.6478 87.6521 14.9011C87.4721 15.1478 87.1921 15.3478 86.8121 15.5011C86.4387 15.6478 85.9621 15.7211 85.3821 15.7211C84.5221 15.7211 83.8554 15.6078 83.3821 15.3811V14.3111C83.6087 14.4178 83.8821 14.5144 84.2021 14.6011C84.5287 14.6878 84.8754 14.7311 85.2421 14.7311C85.6487 14.7311 85.9921 14.6778 86.2721 14.5711C86.5521 14.4644 86.6921 14.2744 86.6921 14.0011C86.6921 13.5011 86.1754 13.2511 85.1421 13.2511H84.5121V12.3411H85.0721C85.5587 12.3411 85.9354 12.2944 86.2021 12.2011C86.4754 12.1011 86.6121 11.9244 86.6121 11.6711C86.6121 11.2644 86.2287 11.0611 85.4621 11.0611C85.1887 11.0611 84.9121 11.0911 84.6321 11.1511C84.3587 11.2111 84.0887 11.2944 83.8221 11.4011L83.4321 10.4911C83.7321 10.3711 84.0554 10.2778 84.4021 10.2111C84.7554 10.1378 85.1554 10.1011 85.6021 10.1011ZM89.9165 12.7811C89.9165 12.9011 89.9098 13.0678 89.8965 13.2811C89.8832 13.4878 89.8698 13.6878 89.8565 13.8811C89.8432 14.0678 89.8332 14.2011 89.8265 14.2811L92.4765 10.2011H93.9965V15.6211H92.7865V13.0711C92.7865 12.9244 92.7898 12.7511 92.7965 12.5511C92.8098 12.3444 92.8232 12.1511 92.8365 11.9711C92.8498 11.7844 92.8598 11.6444 92.8665 11.5511L90.2265 15.6211H88.7065V10.2011H89.9165V12.7811ZM99.4022 11.1711H97.6222V15.6211H96.3722V11.1711H94.6022V10.2011H99.4022V11.1711ZM102.09 10.1011C102.817 10.1011 103.39 10.3178 103.81 10.7511C104.237 11.1844 104.45 11.7878 104.45 12.5611V13.2011H100.87C100.884 13.6944 101.02 14.0778 101.28 14.3511C101.54 14.6178 101.9 14.7511 102.36 14.7511C102.707 14.7511 103.02 14.7178 103.3 14.6511C103.58 14.5778 103.867 14.4744 104.16 14.3411V15.3511C103.894 15.4778 103.617 15.5711 103.33 15.6311C103.044 15.6911 102.7 15.7211 102.3 15.7211C101.774 15.7211 101.304 15.6211 100.89 15.4211C100.484 15.2144 100.164 14.9044 99.9304 14.4911C99.7038 14.0778 99.5904 13.5644 99.5904 12.9511C99.5904 12.0244 99.8204 11.3178 100.28 10.8311C100.74 10.3444 101.344 10.1011 102.09 10.1011ZM102.09 11.0311C101.75 11.0311 101.474 11.1411 101.26 11.3611C101.054 11.5744 100.934 11.8944 100.9 12.3211H103.23C103.224 11.9478 103.127 11.6411 102.94 11.4011C102.76 11.1544 102.477 11.0311 102.09 11.0311ZM112.102 11.6011C112.102 11.9078 112.005 12.1611 111.812 12.3611C111.625 12.5611 111.359 12.6911 111.012 12.7511V12.7911C111.379 12.8378 111.679 12.9644 111.912 13.1711C112.152 13.3778 112.272 13.6578 112.272 14.0111C112.272 14.4778 112.092 14.8644 111.732 15.1711C111.372 15.4711 110.779 15.6211 109.952 15.6211H107.462V10.2011H109.942C110.355 10.2011 110.722 10.2444 111.042 10.3311C111.369 10.4178 111.625 10.5644 111.812 10.7711C112.005 10.9711 112.102 11.2478 112.102 11.6011ZM110.822 11.7111C110.822 11.3244 110.512 11.1311 109.892 11.1311H108.722V12.3511H109.722C110.455 12.3511 110.822 12.1378 110.822 11.7111ZM110.962 13.9611C110.962 13.7144 110.865 13.5378 110.672 13.4311C110.479 13.3178 110.195 13.2611 109.822 13.2611H108.722V14.7111H109.852C110.192 14.7111 110.462 14.6544 110.662 14.5411C110.862 14.4278 110.962 14.2344 110.962 13.9611Z" fill="#646468"/>
</g>
<defs>
<clipPath id="clip0_1401_8685">
<rect width="180" height="52" fill="white" transform="translate(0.247559)"/>
</clipPath>
</defs>
</svg>
