<svg width="51" height="51" viewBox="0 0 51 51" fill="none" xmlns="http://www.w3.org/2000/svg">
<path d="M25.5001 2V16.4616M19 33L25 39L36.5 27.5M2 16.4616H49.0002V45.3848C49.0002 46.3436 48.6193 47.2632 47.9413 47.9413C47.2632 48.6193 46.3436 49.0002 45.3848 49.0002H5.6154C4.65654 49.0002 3.73694 48.6193 3.05893 47.9413C2.38091 47.2632 2 46.3436 2 45.3848V16.4616Z" stroke="white" stroke-width="2.5" stroke-linecap="round" stroke-linejoin="round"/>
<path d="M2 16.4616L7.4231 6.01309C8.00774 4.83545 8.90241 3.8395 10.0108 3.1324C11.1193 2.42529 12.3995 2.03378 13.7139 2H37.2863C38.6315 2.00071 39.9499 2.37668 41.0931 3.08563C42.2364 3.79458 43.1592 4.8084 43.7579 6.01309L49.0002 16.4616" stroke="white" stroke-width="2.5" stroke-linecap="round" stroke-linejoin="round"/>
</svg>
