<svg width="180" height="52" viewBox="0 0 180 52" fill="none" xmlns="http://www.w3.org/2000/svg">
<g clip-path="url(#clip0_1401_8751)">
<path d="M173.343 1.04162C176.425 1.04162 178.933 3.4905 178.933 6.5V45.5C178.933 48.5095 176.425 50.9584 173.343 50.9584H6.90506C3.82264 50.9584 1.31442 48.5095 1.31442 45.5V6.5C1.31442 3.4905 3.82264 1.04162 6.90506 1.04162H173.343ZM173.343 2.74817e-06H6.90506C3.2451 2.74817e-06 0.247559 2.92663 0.247559 6.5V45.5C0.247559 49.0734 3.2451 52 6.90506 52H173.343C177.003 52 180 49.0734 180 45.5V6.5C180 2.92663 177.003 2.74817e-06 173.343 2.74817e-06Z" fill="#A6A6A6"/>
<path d="M90.9691 28.2783C87.8417 28.2783 85.2869 30.602 85.2869 33.8082C85.2869 36.9883 87.8417 39.3364 90.9691 39.3364C94.1031 39.3364 96.6579 36.9883 96.6579 33.8082C96.6579 30.602 94.1031 28.2783 90.9691 28.2783ZM90.9691 37.1589C89.2531 37.1589 87.7768 35.776 87.7768 33.8082C87.7768 31.8143 89.2531 30.4558 90.9691 30.4558C92.6851 30.4558 94.168 31.8143 94.168 33.8082C94.168 35.776 92.6851 37.1589 90.9691 37.1589ZM78.5712 28.2783C75.4371 28.2783 72.889 30.602 72.889 33.8082C72.889 36.9883 75.4371 39.3364 78.5712 39.3364C81.7035 39.3364 84.2533 36.9883 84.2533 33.8082C84.2533 30.602 81.7035 28.2783 78.5712 28.2783ZM78.5712 37.1589C76.8535 37.1589 75.3722 35.776 75.3722 33.8082C75.3722 31.8143 76.8535 30.4558 78.5712 30.4558C80.2871 30.4558 81.7634 31.8143 81.7634 33.8082C81.7634 35.776 80.2871 37.1589 78.5712 37.1589ZM63.8181 29.9732V32.3229H69.5652C69.3971 33.6359 68.9477 34.6012 68.2587 35.2739C67.4198 36.0864 66.1133 36.9883 63.8181 36.9883C60.2813 36.9883 57.5118 34.2014 57.5118 30.7483C57.5118 27.2952 60.2813 24.5083 63.8181 24.5083C65.7305 24.5083 67.1219 25.2379 68.1488 26.1837L69.8448 24.5278C68.4085 23.1888 66.4978 22.1602 63.8181 22.1602C58.9681 22.1602 54.8921 26.013 54.8921 30.7483C54.8921 35.4835 58.9681 39.3364 63.8181 39.3364C66.4395 39.3364 68.4085 38.4979 69.9563 36.9249C71.5425 35.3763 72.0368 33.1988 72.0368 31.4405C72.0368 30.8945 71.9902 30.3924 71.907 29.9732H63.8181ZM124.145 31.7948C123.677 30.5582 122.234 28.2783 119.295 28.2783C116.382 28.2783 113.957 30.5192 113.957 33.8082C113.957 36.9054 116.357 39.3364 119.575 39.3364C122.176 39.3364 123.677 37.7878 124.295 36.8859L122.364 35.6298C121.72 36.5495 120.843 37.1589 119.575 37.1589C118.315 37.1589 117.411 36.595 116.832 35.4835L124.406 32.4237L124.145 31.7948ZM116.422 33.6359C116.357 31.5039 118.118 30.4119 119.38 30.4119C120.369 30.4119 121.207 30.8945 121.487 31.5852L116.422 33.6359ZM110.266 39H112.756V22.75H110.266V39ZM106.188 29.51H106.105C105.546 28.8633 104.479 28.2783 103.127 28.2783C100.291 28.2783 97.6982 30.7093 97.6982 33.826C97.6982 36.9249 100.291 39.3364 103.127 39.3364C104.479 39.3364 105.546 38.7465 106.105 38.0803H106.188V38.8733C106.188 40.9874 105.031 42.1233 103.166 42.1233C101.644 42.1233 100.701 41.0508 100.311 40.1489L98.1459 41.0313C98.77 42.497 100.423 44.3008 103.166 44.3008C106.085 44.3008 108.548 42.6238 108.548 38.5434V28.6147H106.188V29.51ZM103.34 37.1589C101.624 37.1589 100.188 35.7565 100.188 33.826C100.188 31.8777 101.624 30.4558 103.34 30.4558C105.031 30.4558 106.365 31.8777 106.365 33.826C106.365 35.7565 105.031 37.1589 103.34 37.1589ZM135.802 22.75H129.847V39H132.33V32.8429H135.802C138.56 32.8429 141.265 30.8945 141.265 27.7957C141.265 24.6984 138.554 22.75 135.802 22.75ZM135.867 30.5825H132.33V25.0104H135.867C137.721 25.0104 138.78 26.5135 138.78 27.7957C138.78 29.0534 137.721 30.5825 135.867 30.5825ZM151.218 28.2474C149.424 28.2474 147.558 29.0209 146.791 30.7353L148.994 31.6372C149.469 30.7353 150.341 30.4428 151.263 30.4428C152.551 30.4428 153.857 31.1984 153.877 32.5325V32.7032C153.428 32.4497 152.466 32.0743 151.283 32.0743C148.909 32.0743 146.491 33.3499 146.491 35.7305C146.491 37.908 148.435 39.3104 150.62 39.3104C152.291 39.3104 153.213 38.5743 153.793 37.7179H153.877V38.974H156.276V32.7405C156.276 29.8594 154.072 28.2474 151.218 28.2474ZM150.918 37.1524C150.106 37.1524 148.974 36.7592 148.974 35.776C148.974 34.5183 150.386 34.0357 151.607 34.0357C152.701 34.0357 153.213 34.2713 153.877 34.5817C153.683 36.0864 152.356 37.1524 150.918 37.1524ZM165.014 28.6033L162.159 35.6477H162.075L159.124 28.6033H156.446L160.88 38.4475L158.35 43.9254H160.944L167.777 28.6033H165.014ZM142.63 39H145.12V22.75H142.63V39Z" fill="#646468"/>
<path d="M13.5244 40.4416V11.9857C13.5244 10.8852 13.9961 10.1253 14.9393 9.70605L31.4469 26.2136L14.9393 42.7212C13.9961 42.2495 13.5244 41.4897 13.5244 40.4416ZM36.7136 31.4803L18.6339 41.8565L32.8619 27.6286L36.7136 31.4803ZM42.2948 24.2484C42.976 24.7725 43.3166 25.4275 43.3166 26.2136C43.3166 26.9997 43.0022 27.6548 42.3734 28.1788L38.5216 30.3798L34.2768 26.2136L38.5216 22.0474L42.2948 24.2484ZM18.6339 10.5707L36.7136 20.9469L32.8619 24.7987L18.6339 10.5707Z" fill="#646468"/>
<path d="M60.8821 9.68178V15.8818H61.8021V18.7618H60.7621V16.8218H55.9821V18.7618H54.9521V15.8818H55.5021C55.8021 15.3484 56.0788 14.7451 56.3321 14.0718C56.5921 13.3918 56.8088 12.6784 56.9821 11.9318C57.1554 11.1851 57.2721 10.4351 57.3321 9.68178H60.8821ZM58.2421 10.6218C58.2088 11.0018 58.1421 11.4218 58.0421 11.8818C57.9488 12.3351 57.8288 12.8018 57.6821 13.2818C57.5354 13.7618 57.3721 14.2251 57.1921 14.6718C57.0188 15.1184 56.8354 15.5218 56.6421 15.8818H59.8121V10.6218H58.2421ZM68.8427 13.2418C68.8427 13.9818 68.7194 14.6284 68.4727 15.1818C68.226 15.7284 67.856 16.1551 67.3627 16.4618C66.8694 16.7684 66.256 16.9218 65.5227 16.9218C64.7694 16.9218 64.146 16.7684 63.6527 16.4618C63.1594 16.1551 62.7927 15.7251 62.5527 15.1718C62.3127 14.6184 62.1927 13.9718 62.1927 13.2318C62.1927 12.4984 62.3127 11.8584 62.5527 11.3118C62.7994 10.7651 63.1694 10.3384 63.6627 10.0318C64.156 9.72511 64.7794 9.57178 65.5327 9.57178C66.266 9.57178 66.876 9.72511 67.3627 10.0318C67.856 10.3318 68.226 10.7584 68.4727 11.3118C68.7194 11.8584 68.8427 12.5018 68.8427 13.2418ZM63.3327 13.2418C63.3327 14.0951 63.5094 14.7684 63.8627 15.2618C64.216 15.7551 64.7694 16.0018 65.5227 16.0018C66.2827 16.0018 66.836 15.7551 67.1827 15.2618C67.5294 14.7684 67.7027 14.0951 67.7027 13.2418C67.7027 12.3884 67.5294 11.7184 67.1827 11.2318C66.8427 10.7451 66.2927 10.5018 65.5327 10.5018C64.7727 10.5018 64.216 10.7451 63.8627 11.2318C63.5094 11.7184 63.3327 12.3884 63.3327 13.2418ZM73.016 10.5118C72.3026 10.5118 71.746 10.7584 71.346 11.2518C70.946 11.7384 70.746 12.4084 70.746 13.2618C70.746 14.1084 70.9326 14.7751 71.306 15.2618C71.6793 15.7484 72.246 15.9918 73.006 15.9918C73.3126 15.9918 73.606 15.9651 73.886 15.9118C74.1726 15.8518 74.4626 15.7751 74.756 15.6818V16.6118C74.476 16.7184 74.1893 16.7951 73.896 16.8418C73.6093 16.8951 73.2693 16.9218 72.876 16.9218C72.1426 16.9218 71.536 16.7718 71.056 16.4718C70.576 16.1651 70.216 15.7384 69.976 15.1918C69.736 14.6384 69.616 13.9918 69.616 13.2518C69.616 12.5318 69.746 11.8951 70.006 11.3418C70.2726 10.7884 70.6593 10.3584 71.166 10.0518C71.6726 9.73844 72.2926 9.58178 73.026 9.58178C73.386 9.58178 73.736 9.62178 74.076 9.70178C74.4226 9.77511 74.7393 9.88178 75.026 10.0218L74.626 10.9218C74.3926 10.8151 74.1393 10.7218 73.866 10.6418C73.5993 10.5551 73.316 10.5118 73.016 10.5118ZM78.2658 16.8218H77.1858V10.6118H75.0458V9.68178H80.4058V10.6118H78.2658V16.8218ZM84.2222 14.7718C84.0089 15.2451 83.7922 15.6418 83.5722 15.9618C83.3589 16.2751 83.0956 16.5151 82.7822 16.6818C82.4756 16.8418 82.0789 16.9218 81.5922 16.9218C81.2189 16.9218 80.8789 16.8718 80.5722 16.7718V15.7618C80.8656 15.8884 81.1856 15.9518 81.5322 15.9518C81.8922 15.9518 82.1689 15.8718 82.3622 15.7118C82.5622 15.5518 82.7389 15.2951 82.8922 14.9418L80.2322 9.68178H81.4022L83.1922 13.3618C83.2322 13.4418 83.2789 13.5451 83.3322 13.6718C83.3922 13.7984 83.4389 13.9118 83.4722 14.0118H83.5122C83.5456 13.9318 83.5856 13.8251 83.6322 13.6918C83.6856 13.5584 83.7322 13.4484 83.7722 13.3618L85.3522 9.68178H86.4822L84.2222 14.7718ZM87.0014 16.8218V9.68178H92.4414V16.8218H91.3714V10.6118H88.0814V16.8218H87.0014ZM99.4966 16.8218H98.4166V13.5618H95.0066V16.8218H93.9266V9.68178H95.0066V12.6418H98.4166V9.68178H99.4966V16.8218ZM107.279 13.2418C107.279 13.9818 107.155 14.6284 106.909 15.1818C106.662 15.7284 106.292 16.1551 105.799 16.4618C105.305 16.7684 104.692 16.9218 103.959 16.9218C103.205 16.9218 102.582 16.7684 102.089 16.4618C101.595 16.1551 101.229 15.7251 100.989 15.1718C100.749 14.6184 100.629 13.9718 100.629 13.2318C100.629 12.4984 100.749 11.8584 100.989 11.3118C101.235 10.7651 101.605 10.3384 102.099 10.0318C102.592 9.72511 103.215 9.57178 103.969 9.57178C104.702 9.57178 105.312 9.72511 105.799 10.0318C106.292 10.3318 106.662 10.7584 106.909 11.3118C107.155 11.8584 107.279 12.5018 107.279 13.2418ZM101.769 13.2418C101.769 14.0951 101.945 14.7684 102.299 15.2618C102.652 15.7551 103.205 16.0018 103.959 16.0018C104.719 16.0018 105.272 15.7551 105.619 15.2618C105.965 14.7684 106.139 14.0951 106.139 13.2418C106.139 12.3884 105.965 11.7184 105.619 11.2318C105.279 10.7451 104.729 10.5018 103.969 10.5018C103.209 10.5018 102.652 10.7451 102.299 11.2318C101.945 11.7184 101.769 12.3884 101.769 13.2418ZM112.661 9.68178C113.568 9.68178 114.255 9.81511 114.721 10.0818C115.195 10.3484 115.431 10.8084 115.431 11.4618C115.431 11.8818 115.318 12.2318 115.091 12.5118C114.871 12.7851 114.555 12.9584 114.141 13.0318V13.0818C114.421 13.1284 114.675 13.2151 114.901 13.3418C115.135 13.4684 115.318 13.6484 115.451 13.8818C115.585 14.1084 115.651 14.4084 115.651 14.7818C115.651 15.4284 115.425 15.9318 114.971 16.2918C114.518 16.6451 113.905 16.8218 113.131 16.8218H110.571V9.68178H112.661ZM112.841 12.6618C113.401 12.6618 113.785 12.5718 113.991 12.3918C114.205 12.2118 114.311 11.9451 114.311 11.5918C114.311 11.2384 114.185 10.9851 113.931 10.8318C113.678 10.6718 113.275 10.5918 112.721 10.5918H111.651V12.6618H112.841ZM111.651 13.5418V15.9218H112.961C113.535 15.9218 113.935 15.8084 114.161 15.5818C114.395 15.3551 114.511 15.0551 114.511 14.6818C114.511 14.3418 114.391 14.0684 114.151 13.8618C113.918 13.6484 113.498 13.5418 112.891 13.5418H111.651Z" fill="#646468"/>
</g>
<defs>
<clipPath id="clip0_1401_8751">
<rect width="143.802" height="41.6" fill="white" transform="matrix(1.25 0 0 -1.25 0.247559 52)"/>
</clipPath>
</defs>
</svg>
