<svg width="66" height="65" viewBox="0 0 66 65" fill="none" xmlns="http://www.w3.org/2000/svg">
<path fill-rule="evenodd" clip-rule="evenodd" d="M33 9.375C26.2115 9.375 20.7083 14.8782 20.7083 21.6667C20.7083 22.357 20.1487 22.9167 19.4583 22.9167C18.768 22.9167 18.2083 22.357 18.2083 21.6667C18.2083 13.4975 24.8308 6.875 33 6.875C38.4766 6.875 43.2565 9.85195 45.8121 14.2699C46.1578 14.8675 45.9535 15.6322 45.356 15.9778C44.7584 16.3235 43.9937 16.1193 43.648 15.5217C41.5209 11.8445 37.5481 9.375 33 9.375Z" fill="white"/>
<path fill-rule="evenodd" clip-rule="evenodd" d="M19.4583 17.5C14.1656 17.5 9.875 21.7906 9.875 27.0833C9.875 32.376 14.1656 36.6667 19.4583 36.6667C20.1487 36.6667 20.7083 37.2263 20.7083 37.9167C20.7083 38.607 20.1487 39.1667 19.4583 39.1667C12.7849 39.1667 7.375 33.7567 7.375 27.0833C7.375 20.4099 12.7849 15 19.4583 15C20.1487 15 20.7083 15.5596 20.7083 16.25C20.7083 16.9404 20.1487 17.5 19.4583 17.5Z" fill="white"/>
<path fill-rule="evenodd" clip-rule="evenodd" d="M38.5487 18.0212C40.6779 16.1418 43.4781 15 46.5416 15C53.2149 15 58.6249 20.4099 58.6249 27.0833C58.6249 33.7567 53.2149 39.1667 46.5416 39.1667C45.8512 39.1667 45.2916 38.607 45.2916 37.9167C45.2916 37.2263 45.8512 36.6667 46.5416 36.6667C51.8342 36.6667 56.1249 32.376 56.1249 27.0833C56.1249 21.7906 51.8342 17.5 46.5416 17.5C44.1104 17.5 41.8931 18.4038 40.2031 19.8955C39.6855 20.3523 38.8956 20.3031 38.4387 19.7855C37.9819 19.2679 38.0311 18.478 38.5487 18.0212Z" fill="white"/>
<path fill-rule="evenodd" clip-rule="evenodd" d="M16.75 36.6667C17.4404 36.6667 18 37.2263 18 37.9167V54.4306C18 55.0902 18.5348 55.625 19.1944 55.625H46.8056C47.4652 55.625 48 55.0902 48 54.4306V37.9167C48 37.2263 48.5596 36.6667 49.25 36.6667C49.9404 36.6667 50.5 37.2263 50.5 37.9167V54.4306C50.5 56.4709 48.8459 58.125 46.8056 58.125H19.1944C17.1541 58.125 15.5 56.4709 15.5 54.4306V37.9167C15.5 37.2263 16.0596 36.6667 16.75 36.6667Z" fill="white"/>
<path fill-rule="evenodd" clip-rule="evenodd" d="M15.5 46.0417C15.5 45.3513 16.0596 44.7917 16.75 44.7917H49.25C49.9404 44.7917 50.5 45.3513 50.5 46.0417C50.5 46.732 49.9404 47.2917 49.25 47.2917H16.75C16.0596 47.2917 15.5 46.732 15.5 46.0417Z" fill="white"/>
</svg>
