<svg width="170" height="34" viewBox="0 0 170 34" fill="none" xmlns="http://www.w3.org/2000/svg">
<path d="M20.3643 13.8529C20.3643 13.8529 27.6084 9.64023 32.2078 15.593C32.2078 15.593 33.4005 16.9461 32.4837 18.2417C31.5815 19.5154 29.5677 19.2448 28.5652 17.8945C27.6607 16.6767 25.4813 15.1306 20.3643 13.8529Z" fill="#8870FF"/>
<path d="M20.3579 13.853C20.3579 13.853 24.7636 6.8557 19.0989 2.73922C19.0989 2.73922 17.2295 1.09066 15.5408 1.67742C13.9701 2.22271 13.929 4.37107 15.3741 5.18354C16.9577 6.07432 19.1271 8.29926 20.3579 13.853Z" fill="#8870FF"/>
<path d="M32.0497 15.9591C32.0497 15.9591 32.089 16.0086 32.1406 16.0771C32.2915 15.9447 32.4376 15.8019 32.5703 15.6349C33.7935 14.0975 32.8133 12.9078 32.8133 12.9078C29.1824 7.54932 20.7314 13.3725 20.7314 13.3725C21.1382 13.4002 21.5186 13.4359 21.8866 13.4739C24.3031 12.609 28.8249 11.7856 32.0497 15.9591Z" fill="#8870FF"/>
<path d="M19.0998 2.73901C23.4696 5.91404 21.8473 10.8015 20.877 12.871C20.8788 12.9176 20.8823 12.9597 20.8841 13.0063C20.8841 13.0063 26.915 4.80905 21.7968 1.5845C21.7968 1.5845 20.1657 0.215797 18.2757 1.1584C17.9511 1.32021 17.6711 1.5298 17.4375 1.76646C18.3831 2.10849 19.0998 2.73901 19.0998 2.73901Z" fill="#A4E869"/>
<path d="M29.6174 4.25008C27.4768 2.88943 24.7598 4.94393 24.7598 4.94393C24.309 5.47368 23.8999 6.04374 23.5225 6.62934C23.148 9.30629 21.3701 12.1997 20.4862 13.5011C20.4339 13.6819 20.3899 13.8402 20.3594 13.9542C21.3836 13.2794 24.3671 11.4535 27.2995 10.9808C28.0273 10.5074 28.7211 9.98748 29.3251 9.42318C32.5621 6.39959 29.6174 4.25008 29.6174 4.25008Z" fill="#659C35"/>
<path d="M20.3643 13.8529C20.3643 13.8529 27.6084 9.64023 32.2078 15.593C32.2078 15.593 33.4005 16.9461 32.4837 18.2417C31.5815 19.5154 29.5677 19.2448 28.5652 17.8945C27.6607 16.6767 25.4813 15.1306 20.3643 13.8529Z" fill="#A4E869"/>
<path d="M20.7643 13.2153C20.5994 13.5303 20.4873 13.7088 20.4873 13.7088C20.4873 13.7088 20.762 13.5499 21.2339 13.3386C21.0807 13.2971 20.9263 13.2562 20.7643 13.2153Z" fill="#F2681C"/>
<path d="M24.5397 17.0077C24.7868 16.3328 24.7715 15.6637 24.6172 15.0332C23.5143 14.5789 22.1602 14.1321 20.4868 13.7146C20.0812 11.8852 19.5735 10.4232 19.0188 9.24513C18.254 8.98428 17.4176 8.89158 16.5712 9.18985C13.9153 10.1261 2.23608 26.6111 0.052027 32.3588C-0.153407 32.8995 0.279178 33.3233 0.82974 33.1218C6.6887 30.9792 23.5853 19.6126 24.5397 17.0077Z" fill="#ED8F20"/>
<path d="M4.83405 27.7005C4.43844 27.5151 4.05399 27.2888 3.69125 27.0279C3.42947 26.839 3.06262 26.8955 2.87128 27.1517C2.67993 27.408 2.73628 27.7684 2.99747 27.9561C3.4189 28.2596 3.86675 28.5233 4.32809 28.7392C4.40968 28.7772 4.49596 28.7957 4.58107 28.7957C4.8 28.7957 5.01013 28.6747 5.11109 28.468C5.2502 28.1813 5.12635 27.8369 4.83405 27.7005Z" fill="#DD7017"/>
<path d="M22.9853 16.7412C21.7844 16.292 20.6698 15.4848 19.6738 14.3418C19.463 14.0999 19.0927 14.0717 18.8462 14.2784C18.5996 14.4852 18.5709 14.8485 18.7816 15.0903C19.9068 16.3813 21.1805 17.2991 22.5674 17.818C22.6361 17.8433 22.7065 17.856 22.7764 17.856C23.0129 17.856 23.2354 17.7143 23.3252 17.4846C23.4402 17.1874 23.2882 16.8546 22.9853 16.7412Z" fill="#DD7017"/>
<path d="M13.3362 12.206C13.5645 12.2642 13.7476 12.4525 13.7752 12.6978C13.8803 13.6375 14.3751 14.8553 15.2455 15.4571C15.5102 15.6402 15.5736 15.9995 15.3864 16.2597C15.2725 16.4187 15.0906 16.5033 14.9063 16.5033C14.7895 16.5033 14.6715 16.4693 14.5682 16.3979C13.3937 15.5855 12.8097 14.1252 12.6406 13.0312" fill="#DD7017"/>
<path d="M14.5682 16.3979C14.6709 16.4693 14.7889 16.5033 14.9063 16.5033C15.0906 16.5033 15.2725 16.4187 15.3864 16.2597C15.573 15.9995 15.5102 15.6407 15.2455 15.4571C14.3757 14.8548 13.8803 13.6369 13.7752 12.6978C13.7476 12.453 13.5645 12.2642 13.3362 12.206C13.1102 12.4692 12.8789 12.7421 12.6406 13.0306C12.8097 14.1252 13.3937 15.5855 14.5682 16.3979Z" fill="#DD7017"/>
<path d="M17.813 22.9392C16.7037 22.763 15.2486 22.1895 14.4334 21.0557C14.2467 20.796 14.3101 20.4367 14.5748 20.253C14.8389 20.0699 15.2058 20.1321 15.393 20.3918C16.0064 21.2446 17.2478 21.7311 18.2057 21.8342C18.4628 21.8618 18.6553 22.0501 18.7081 22.2845" fill="#DD7017"/>
<path d="M18.2061 21.8285C17.2476 21.7254 16.0062 21.2394 15.3934 20.3861C15.2068 20.1264 14.8394 20.0636 14.5752 20.2473C14.3099 20.4304 14.2465 20.7897 14.4338 21.05C15.249 22.1838 16.7041 22.7573 17.8134 22.9335C18.1181 22.7129 18.4168 22.4953 18.7085 22.2793C18.6557 22.0444 18.4626 21.8561 18.2061 21.8285Z" fill="#DD7017"/>
<path d="M8.66092 18.23C8.89511 18.2841 9.08353 18.4741 9.1117 18.7229C9.17744 19.3131 9.48441 20.0755 10.0209 20.4474C10.2856 20.6305 10.349 20.9898 10.1618 21.2501C10.0473 21.409 9.86593 21.4937 9.68163 21.4937C9.56483 21.4937 9.44685 21.4597 9.34355 21.3883C8.56407 20.8488 8.14616 19.9142 7.99414 19.1628" fill="#DD7017"/>
<path d="M9.34452 21.3883C9.44724 21.4597 9.56522 21.4937 9.68261 21.4937C9.86691 21.4937 10.0483 21.409 10.1627 21.2501C10.3494 20.9904 10.2866 20.6311 10.0219 20.4474C9.4848 20.0755 9.17841 19.3137 9.11268 18.7229C9.08509 18.4735 8.89668 18.2835 8.6619 18.23C8.43944 18.538 8.21757 18.849 7.99512 19.1628C8.14714 19.9142 8.56505 20.8488 9.34452 21.3883Z" fill="#DD7017"/>
<path d="M10.5795 27.8097C9.78301 27.7078 8.67543 27.2984 8.06441 26.4479C7.87776 26.1876 7.94056 25.8289 8.20528 25.6452C8.47058 25.461 8.83684 25.5243 9.02349 25.7834C9.40266 26.3103 10.1792 26.6109 10.7808 26.6753C11.1031 26.7099 11.3355 26.9943 11.3003 27.3105C11.2985 27.3283 11.2885 27.3433 11.285 27.3606" fill="#DD7017"/>
<path d="M10.7801 26.676C10.1785 26.6115 9.40135 26.3103 9.02277 25.784C8.83612 25.5244 8.47045 25.4616 8.20456 25.6459C7.93984 25.829 7.87645 26.1883 8.06369 26.4485C8.67529 27.299 9.78229 27.7084 10.5788 27.8103C10.8136 27.6623 11.0489 27.5121 11.2843 27.3618C11.2878 27.3445 11.2978 27.3295 11.2996 27.3117C11.3354 26.9956 11.1023 26.7105 10.7801 26.676Z" fill="#DD7017"/>
<path d="M164.686 16.7587C163.998 16.7587 163.458 16.9746 163.068 17.4064C162.677 17.8312 162.454 18.437 162.397 19.224H166.955C166.94 18.437 166.731 17.8312 166.326 17.4064C165.922 16.9746 165.375 16.7587 164.686 16.7587ZM165.144 26.599C163.228 26.599 161.73 26.0802 160.651 25.0425C159.572 24.0049 159.032 22.5354 159.032 20.6342C159.032 18.6773 159.529 17.1661 160.523 16.1006C161.524 15.0281 162.905 14.4919 164.665 14.4919C166.348 14.4919 167.657 14.9619 168.594 15.9021C169.531 16.8423 170 18.1411 170 19.7985V21.3446H162.323C162.358 22.2499 162.631 22.9568 163.142 23.4651C163.654 23.9735 164.371 24.2277 165.293 24.2277C166.01 24.2277 166.688 24.1546 167.327 24.0083C167.966 23.8621 168.633 23.6288 169.329 23.3085V25.7738C168.761 26.0523 168.154 26.2578 167.508 26.3901C166.862 26.5294 166.074 26.599 165.144 26.599Z" fill="white"/>
<path d="M158.094 22.9219C158.094 24.1198 157.668 25.0321 156.816 25.6588C155.972 26.2856 154.704 26.599 153.015 26.599C152.149 26.599 151.411 26.5398 150.8 26.4214C150.19 26.31 149.618 26.1429 149.086 25.92V23.2876C149.689 23.5661 150.367 23.7994 151.12 23.9875C151.879 24.1755 152.546 24.2695 153.121 24.2695C154.3 24.2695 154.889 23.9352 154.889 23.2667C154.889 23.016 154.811 22.814 154.655 22.6608C154.499 22.5006 154.229 22.323 153.846 22.128C153.462 21.9261 152.951 21.6928 152.312 21.4281C151.396 21.0521 150.722 20.7039 150.289 20.3835C149.863 20.0632 149.551 19.6976 149.352 19.2867C149.16 18.8688 149.064 18.357 149.064 17.7511C149.064 16.7134 149.473 15.9125 150.289 15.3485C151.112 14.7774 152.277 14.4919 153.782 14.4919C155.216 14.4919 156.611 14.7983 157.966 15.4111L156.987 17.7093C156.39 17.4586 155.833 17.2531 155.315 17.093C154.797 16.9328 154.268 16.8527 153.728 16.8527C152.77 16.8527 152.291 17.1069 152.291 17.6153C152.291 17.9008 152.444 18.148 152.749 18.357C153.061 18.5659 153.739 18.8758 154.783 19.2867C155.713 19.6558 156.394 20.0005 156.827 20.3208C157.26 20.6412 157.58 21.0103 157.785 21.4281C157.991 21.846 158.094 22.3439 158.094 22.9219Z" fill="white"/>
<path d="M144.762 26.3902L144.325 24.8963H144.155C143.807 25.4395 143.314 25.8609 142.675 26.1603C142.036 26.4528 141.308 26.5991 140.492 26.5991C139.094 26.5991 138.039 26.2335 137.329 25.5022C136.62 24.764 136.265 23.7055 136.265 22.3266V14.7113H139.512V21.5327C139.512 22.3753 139.665 23.0091 139.97 23.4339C140.276 23.8517 140.762 24.0607 141.429 24.0607C142.338 24.0607 142.994 23.7647 143.399 23.1727C143.804 22.5738 144.006 21.5849 144.006 20.206V14.7113H147.254V26.3902H144.762Z" fill="white"/>
<path d="M126.286 20.5298C126.286 21.6858 126.478 22.5598 126.861 23.1518C127.252 23.7437 127.883 24.0397 128.757 24.0397C129.623 24.0397 130.244 23.7472 130.62 23.1622C131.003 22.5703 131.195 21.6928 131.195 20.5298C131.195 19.3737 131.003 18.5067 130.62 17.9287C130.237 17.3506 129.608 17.0616 128.735 17.0616C127.869 17.0616 127.245 17.3506 126.861 17.9287C126.478 18.4997 126.286 19.3668 126.286 20.5298ZM134.517 20.5298C134.517 22.431 134.006 23.9178 132.984 24.9903C131.962 26.0628 130.538 26.599 128.714 26.599C127.571 26.599 126.563 26.3553 125.69 25.8678C124.817 25.3733 124.146 24.6665 123.677 23.7472C123.209 22.8279 122.975 21.7555 122.975 20.5298C122.975 18.6216 123.482 17.1382 124.497 16.0797C125.512 15.0211 126.939 14.4919 128.778 14.4919C129.921 14.4919 130.929 14.7356 131.802 15.2231C132.675 15.7106 133.346 16.4105 133.815 17.3228C134.283 18.2351 134.517 19.3041 134.517 20.5298Z" fill="white"/>
<path d="M120.887 26.3902H117.596V19.7987H111.431V26.3902H108.13V11.1179H111.431V17.1036H117.596V11.1179H120.887V26.3902Z" fill="white"/>
<path d="M100.071 22.9219C100.071 24.1198 99.6448 25.0321 98.793 25.6588C97.9482 26.2856 96.6811 26.599 94.9915 26.599C94.1255 26.599 93.3872 26.5398 92.7767 26.4214C92.1662 26.31 91.5947 26.1429 91.0623 25.92V23.2876C91.6657 23.5661 92.3437 23.7994 93.0961 23.9875C93.8557 24.1755 94.523 24.2695 95.098 24.2695C96.2764 24.2695 96.8656 23.9352 96.8656 23.2667C96.8656 23.016 96.7875 22.814 96.6314 22.6608C96.4752 22.5006 96.2054 22.323 95.8221 22.128C95.4388 21.9261 94.9276 21.6928 94.2887 21.4281C93.373 21.0521 92.6986 20.7039 92.2656 20.3835C91.8396 20.0632 91.5273 19.6976 91.3285 19.2867C91.1369 18.8688 91.041 18.357 91.041 17.7511C91.041 16.7134 91.4492 15.9125 92.2656 15.3485C93.089 14.7774 94.2533 14.4919 95.7582 14.4919C97.1922 14.4919 98.5871 14.7983 99.943 15.4111L98.9633 17.7093C98.367 17.4586 97.8098 17.2531 97.2916 17.093C96.7733 16.9328 96.2445 16.8527 95.705 16.8527C94.7466 16.8527 94.2674 17.1069 94.2674 17.6153C94.2674 17.9008 94.4201 18.148 94.7253 18.357C95.0377 18.5659 95.7156 18.8758 96.7592 19.2867C97.6891 19.6558 98.3706 20.0005 98.8036 20.3208C99.2367 20.6412 99.5561 21.0103 99.762 21.4281C99.9678 21.846 100.071 22.3439 100.071 22.9219Z" fill="white"/>
<path d="M91.121 13.4264C90.6738 13.1199 90.0172 12.6255 89.1511 11.943C88.285 11.2536 87.6107 10.679 87.1279 10.2194V10H90.7696C91.2169 10.7034 92.051 11.7515 93.272 13.1443V13.4264H91.121Z" fill="white"/>
<path d="M85.2042 17.1035H82.3931V26.3901H79.1454V17.1035H77.3564V15.5679L79.1454 14.7113V13.8547C79.1454 12.5245 79.479 11.553 80.1463 10.9402C80.8136 10.3274 81.882 10.0209 83.3514 10.0209C84.4731 10.0209 85.4704 10.1846 86.3436 10.5119L85.513 12.8519C84.8599 12.6499 84.2565 12.5489 83.7028 12.5489C83.2414 12.5489 82.9078 12.6847 82.7019 12.9563C82.496 13.221 82.3931 13.5622 82.3931 13.98V14.7113H85.2042V17.1035Z" fill="white"/>
<path d="M71.541 16.7587C70.8524 16.7587 70.3129 16.9746 69.9224 17.4064C69.532 17.8312 69.3084 18.437 69.2516 19.224H73.8091C73.7949 18.437 73.5854 17.8312 73.1808 17.4064C72.7762 16.9746 72.2296 16.7587 71.541 16.7587ZM71.9988 26.599C70.0821 26.599 68.5843 26.0802 67.5053 25.0425C66.4262 24.0049 65.8867 22.5354 65.8867 20.6342C65.8867 18.6773 66.3836 17.1661 67.3775 16.1006C68.3784 15.0281 69.7592 14.4919 71.5197 14.4919C73.2021 14.4919 74.5118 14.9619 75.4489 15.9021C76.3859 16.8423 76.8545 18.1411 76.8545 19.7985V21.3446H69.177C69.2125 22.2499 69.4858 22.9568 69.997 23.4651C70.5081 23.9735 71.2251 24.2277 72.1479 24.2277C72.8649 24.2277 73.5428 24.1546 74.1817 24.0083C74.8206 23.8621 75.4879 23.6288 76.1836 23.3085V25.7738C75.6157 26.0523 75.0088 26.2578 74.3628 26.3901C73.7168 26.5294 72.9288 26.599 71.9988 26.599Z" fill="white"/>
<path d="M64.1394 26.3901H60.8917V19.5687C60.8917 17.8834 60.2528 17.0407 58.975 17.0407C58.0664 17.0407 57.4097 17.3437 57.0051 17.9495C56.6004 18.5554 56.3981 19.5374 56.3981 20.8954V26.3901H53.1504V10.1358H56.3981V13.4472C56.3981 13.7049 56.3733 14.3108 56.3236 15.2649L56.249 16.205H56.4194C57.1435 15.0629 58.2935 14.4919 59.8695 14.4919C61.2679 14.4919 62.3292 14.861 63.0533 15.5992C63.7774 16.3373 64.1394 17.3959 64.1394 18.7748V26.3901Z" fill="white"/>
<path d="M46.9844 13.5936C45.7421 13.5936 44.7802 14.0532 44.0987 14.9725C43.4172 15.8848 43.0765 17.1592 43.0765 18.7958C43.0765 22.2012 44.3791 23.904 46.9844 23.904C48.0776 23.904 49.4016 23.6358 50.9562 23.0996V25.8156C49.6784 26.3379 48.2516 26.5991 46.6756 26.5991C44.4111 26.5991 42.679 25.927 41.4792 24.583C40.2795 23.2319 39.6797 21.2959 39.6797 18.7749C39.6797 17.1871 39.9743 15.7977 40.5635 14.6069C41.1527 13.409 41.9975 12.4932 43.0978 11.8595C44.2052 11.2188 45.5008 10.8985 46.9844 10.8985C48.4965 10.8985 50.0156 11.2571 51.5419 11.9744L50.4771 14.6069C49.895 14.3353 49.3093 14.0985 48.7201 13.8965C48.1309 13.6946 47.5523 13.5936 46.9844 13.5936Z" fill="white"/>
</svg>
