<svg width="34" height="34" viewBox="0 0 34 34" fill="none" xmlns="http://www.w3.org/2000/svg">
<g clip-path="url(#clip0_3101_15395)">
<path d="M20.3643 13.8529C20.3643 13.8529 27.6084 9.64023 32.2078 15.593C32.2078 15.593 33.4005 16.9461 32.4837 18.2417C31.5815 19.5154 29.5677 19.2448 28.5652 17.8945C27.6607 16.6767 25.4813 15.1306 20.3643 13.8529Z" fill="#8870FF"/>
<path d="M20.3579 13.853C20.3579 13.853 24.7636 6.8557 19.0989 2.73922C19.0989 2.73922 17.2295 1.09066 15.5408 1.67742C13.9701 2.22271 13.929 4.37107 15.3741 5.18354C16.9577 6.07432 19.1271 8.29926 20.3579 13.853Z" fill="#8870FF"/>
<path d="M32.0497 15.9591C32.0497 15.9591 32.089 16.0086 32.1406 16.0771C32.2915 15.9447 32.4376 15.8019 32.5703 15.6349C33.7935 14.0975 32.8133 12.9078 32.8133 12.9078C29.1824 7.54932 20.7314 13.3725 20.7314 13.3725C21.1382 13.4002 21.5186 13.4359 21.8866 13.4739C24.3031 12.609 28.8249 11.7856 32.0497 15.9591Z" fill="#8870FF"/>
<path d="M19.0998 2.73901C23.4696 5.91404 21.8473 10.8015 20.877 12.871C20.8788 12.9176 20.8823 12.9597 20.8841 13.0063C20.8841 13.0063 26.915 4.80905 21.7968 1.5845C21.7968 1.5845 20.1657 0.215797 18.2757 1.1584C17.9511 1.32021 17.6711 1.5298 17.4375 1.76646C18.3831 2.10849 19.0998 2.73901 19.0998 2.73901Z" fill="#A4E869"/>
<path d="M29.6174 4.25008C27.4768 2.88943 24.7598 4.94393 24.7598 4.94393C24.309 5.47368 23.8999 6.04374 23.5225 6.62934C23.148 9.30629 21.3701 12.1997 20.4862 13.5011C20.4339 13.6819 20.3899 13.8402 20.3594 13.9542C21.3836 13.2794 24.3671 11.4535 27.2995 10.9808C28.0273 10.5074 28.7211 9.98748 29.3251 9.42318C32.5621 6.39959 29.6174 4.25008 29.6174 4.25008Z" fill="#659C35"/>
<path d="M20.3643 13.8529C20.3643 13.8529 27.6084 9.64023 32.2078 15.593C32.2078 15.593 33.4005 16.9461 32.4837 18.2417C31.5815 19.5154 29.5677 19.2448 28.5652 17.8945C27.6607 16.6767 25.4813 15.1306 20.3643 13.8529Z" fill="#A4E869"/>
<path d="M20.7643 13.2153C20.5994 13.5303 20.4873 13.7088 20.4873 13.7088C20.4873 13.7088 20.762 13.5499 21.2339 13.3386C21.0807 13.2971 20.9263 13.2562 20.7643 13.2153Z" fill="#F2681C"/>
<path d="M24.5397 17.0077C24.7868 16.3328 24.7715 15.6637 24.6172 15.0332C23.5143 14.5789 22.1602 14.1321 20.4868 13.7146C20.0812 11.8852 19.5735 10.4232 19.0188 9.24513C18.254 8.98428 17.4176 8.89158 16.5712 9.18985C13.9153 10.1261 2.23608 26.6111 0.052027 32.3588C-0.153407 32.8995 0.279178 33.3233 0.82974 33.1218C6.6887 30.9792 23.5853 19.6126 24.5397 17.0077Z" fill="#ED8F20"/>
<path d="M4.83405 27.7005C4.43844 27.5151 4.05399 27.2888 3.69125 27.0279C3.42947 26.839 3.06262 26.8955 2.87128 27.1517C2.67993 27.408 2.73628 27.7684 2.99747 27.9561C3.4189 28.2596 3.86675 28.5233 4.32809 28.7392C4.40968 28.7772 4.49596 28.7957 4.58107 28.7957C4.8 28.7957 5.01013 28.6747 5.11109 28.468C5.2502 28.1813 5.12635 27.8369 4.83405 27.7005Z" fill="#DD7017"/>
<path d="M22.9853 16.7412C21.7844 16.292 20.6698 15.4848 19.6738 14.3418C19.463 14.0999 19.0927 14.0717 18.8462 14.2784C18.5996 14.4852 18.5709 14.8485 18.7816 15.0903C19.9068 16.3813 21.1805 17.2991 22.5674 17.818C22.6361 17.8433 22.7065 17.856 22.7764 17.856C23.0129 17.856 23.2354 17.7143 23.3252 17.4846C23.4402 17.1874 23.2882 16.8546 22.9853 16.7412Z" fill="#DD7017"/>
<path d="M13.3362 12.206C13.5645 12.2642 13.7476 12.4525 13.7752 12.6978C13.8803 13.6375 14.3751 14.8553 15.2455 15.4571C15.5102 15.6402 15.5736 15.9995 15.3864 16.2597C15.2725 16.4187 15.0906 16.5033 14.9063 16.5033C14.7895 16.5033 14.6715 16.4693 14.5682 16.3979C13.3937 15.5855 12.8097 14.1252 12.6406 13.0312" fill="#DD7017"/>
<path d="M14.5682 16.3979C14.6709 16.4693 14.7889 16.5033 14.9063 16.5033C15.0906 16.5033 15.2725 16.4187 15.3864 16.2597C15.573 15.9995 15.5102 15.6407 15.2455 15.4571C14.3757 14.8548 13.8803 13.6369 13.7752 12.6978C13.7476 12.453 13.5645 12.2642 13.3362 12.206C13.1102 12.4692 12.8789 12.7421 12.6406 13.0306C12.8097 14.1252 13.3937 15.5855 14.5682 16.3979Z" fill="#DD7017"/>
<path d="M17.813 22.9392C16.7037 22.763 15.2486 22.1895 14.4334 21.0557C14.2467 20.796 14.3101 20.4367 14.5748 20.253C14.8389 20.0699 15.2058 20.1321 15.393 20.3918C16.0064 21.2446 17.2478 21.7311 18.2057 21.8342C18.4628 21.8618 18.6553 22.0501 18.7081 22.2845" fill="#DD7017"/>
<path d="M18.2061 21.8285C17.2476 21.7254 16.0062 21.2394 15.3934 20.3861C15.2068 20.1264 14.8394 20.0636 14.5752 20.2473C14.3099 20.4304 14.2465 20.7897 14.4338 21.05C15.249 22.1838 16.7041 22.7573 17.8134 22.9335C18.1181 22.7129 18.4168 22.4953 18.7085 22.2793C18.6557 22.0444 18.4626 21.8561 18.2061 21.8285Z" fill="#DD7017"/>
<path d="M8.66092 18.23C8.89511 18.2841 9.08353 18.4741 9.1117 18.7229C9.17744 19.3131 9.48441 20.0755 10.0209 20.4474C10.2856 20.6305 10.349 20.9898 10.1618 21.2501C10.0473 21.409 9.86593 21.4937 9.68163 21.4937C9.56483 21.4937 9.44685 21.4597 9.34355 21.3883C8.56407 20.8488 8.14616 19.9142 7.99414 19.1628" fill="#DD7017"/>
<path d="M9.34452 21.3883C9.44724 21.4597 9.56522 21.4937 9.68261 21.4937C9.86691 21.4937 10.0483 21.409 10.1627 21.2501C10.3494 20.9904 10.2866 20.6311 10.0219 20.4474C9.4848 20.0755 9.17841 19.3137 9.11268 18.7229C9.08509 18.4735 8.89668 18.2835 8.6619 18.23C8.43944 18.538 8.21757 18.849 7.99512 19.1628C8.14714 19.9142 8.56505 20.8488 9.34452 21.3883Z" fill="#DD7017"/>
<path d="M10.5795 27.8097C9.78301 27.7078 8.67543 27.2984 8.06441 26.4479C7.87776 26.1876 7.94056 25.8289 8.20528 25.6452C8.47058 25.461 8.83684 25.5243 9.02349 25.7834C9.40266 26.3103 10.1792 26.6109 10.7808 26.6753C11.1031 26.7099 11.3355 26.9943 11.3003 27.3105C11.2985 27.3283 11.2885 27.3433 11.285 27.3606" fill="#DD7017"/>
<path d="M10.7801 26.676C10.1785 26.6115 9.40135 26.3103 9.02277 25.784C8.83612 25.5244 8.47045 25.4616 8.20456 25.6459C7.93984 25.829 7.87645 26.1883 8.06369 26.4485C8.67529 27.299 9.78229 27.7084 10.5788 27.8103C10.8136 27.6623 11.0489 27.5121 11.2843 27.3618C11.2878 27.3445 11.2978 27.3295 11.2996 27.3117C11.3354 26.9956 11.1023 26.7105 10.7801 26.676Z" fill="#DD7017"/>
</g>
<defs>
<clipPath id="clip0_3101_15395">
<rect width="33.1851" height="32.3457" fill="white" transform="translate(0 0.827164)"/>
</clipPath>
</defs>
</svg>
