<svg width="276" height="59" viewBox="0 0 276 59" fill="none" xmlns="http://www.w3.org/2000/svg">
<path d="M33.4175 21.997C33.4175 21.997 45.1461 15.0446 52.5927 24.8688C52.5927 24.8688 54.5237 27.1021 53.0394 29.2402C51.5787 31.3423 48.3182 30.8957 46.6951 28.6672C45.2307 26.6573 41.7022 24.1058 33.4175 21.997Z" fill="#8870FF"/>
<path d="M33.4079 21.997C33.4079 21.997 40.5409 10.4489 31.3695 3.65523C31.3695 3.65523 28.3428 0.934505 25.6087 1.90286C23.0657 2.8028 22.9992 6.34839 25.3389 7.68927C27.9028 9.15939 31.4151 12.8314 33.4079 21.997Z" fill="#8870FF"/>
<path d="M52.3374 25.4732C52.3374 25.4732 52.4011 25.555 52.4847 25.668C52.7289 25.4495 52.9656 25.2138 53.1803 24.9382C55.1608 22.4009 53.5738 20.4376 53.5738 20.4376C47.6952 11.594 34.0127 21.2045 34.0127 21.2045C34.6713 21.2501 35.2871 21.309 35.8829 21.3717C39.7953 19.9444 47.1164 18.5854 52.3374 25.4732Z" fill="#8870FF"/>
<path d="M31.3705 3.65521C38.4455 8.89519 35.8188 16.9614 34.248 20.3768C34.2508 20.4537 34.2565 20.5231 34.2594 20.6001C34.2594 20.6001 44.0238 7.07156 35.7371 1.74985C35.7371 1.74985 33.0962 -0.509019 30.0362 1.04663C29.5107 1.31366 29.0574 1.65957 28.6792 2.05015C30.2101 2.61463 31.3705 3.65521 31.3705 3.65521Z" fill="#A4E869"/>
<path d="M48.3978 6.14882C44.9321 3.90325 40.5331 7.29394 40.5331 7.29394C39.8033 8.16822 39.1409 9.10902 38.5299 10.0755C37.9236 14.4934 35.0451 19.2687 33.614 21.4164C33.5294 21.7148 33.4581 21.9761 33.4087 22.1643C35.067 21.0505 39.8974 18.0371 44.6451 17.2569C45.8235 16.4758 46.9467 15.6177 47.9246 14.6864C53.1655 9.69631 48.3978 6.14882 48.3978 6.14882Z" fill="#659C35"/>
<path d="M33.4175 21.997C33.4175 21.997 45.1461 15.0446 52.5927 24.8688C52.5927 24.8688 54.5237 27.1021 53.0394 29.2402C51.5787 31.3423 48.3182 30.8957 46.6951 28.6672C45.2307 26.6573 41.7022 24.1058 33.4175 21.997Z" fill="#A4E869"/>
<path d="M34.0643 20.945C33.7972 21.4648 33.6157 21.7594 33.6157 21.7594C33.6157 21.7594 34.0605 21.4971 34.8245 21.1484C34.5765 21.08 34.3266 21.0125 34.0643 20.945Z" fill="#F2681C"/>
<path d="M40.1777 27.2037C40.5778 26.09 40.5531 24.9857 40.3031 23.9451C38.5175 23.1953 36.3252 22.4579 33.6158 21.7689C32.9592 18.7498 32.1372 16.337 31.2391 14.3927C30.0009 13.9622 28.6467 13.8092 27.2764 14.3015C22.9762 15.8466 4.06709 43.0529 0.531011 52.5388C0.198405 53.4312 0.898779 54.1306 1.79016 53.798C11.2761 50.2619 38.6325 31.5029 40.1777 27.2037Z" fill="#ED8F20"/>
<path d="M8.27363 44.8509C7.63313 44.5449 7.01068 44.1714 6.42339 43.7409C5.99955 43.4292 5.40561 43.5224 5.09581 43.9453C4.78602 44.3681 4.87724 44.963 5.30013 45.2728C5.98245 45.7736 6.70753 46.2089 7.45447 46.5652C7.58656 46.628 7.72626 46.6584 7.86405 46.6584C8.21851 46.6584 8.55872 46.4588 8.72217 46.1177C8.9474 45.6444 8.74688 45.0761 8.27363 44.8509Z" fill="#DD7017"/>
<path d="M37.6613 26.7638C35.7169 26.0225 33.9123 24.6902 32.2996 22.8039C31.9585 22.4047 31.3588 22.3582 30.9597 22.6993C30.5606 23.0405 30.514 23.6401 30.8552 24.0393C32.6769 26.1698 34.7391 27.6846 36.9846 28.5408C37.0958 28.5827 37.2099 28.6036 37.3229 28.6036C37.7059 28.6036 38.0661 28.3698 38.2115 27.9906C38.3977 27.5003 38.1516 26.951 37.6613 26.7638Z" fill="#DD7017"/>
<path d="M22.0392 19.2792C22.4089 19.3751 22.7054 19.6859 22.75 20.0907C22.9201 21.6416 23.7212 23.6515 25.1305 24.6446C25.5591 24.9468 25.6618 25.5398 25.3586 25.9693C25.1742 26.2316 24.8797 26.3713 24.5813 26.3713C24.3921 26.3713 24.2011 26.3152 24.0339 26.1974C22.1323 24.8565 21.1868 22.4465 20.9131 20.6409" fill="#DD7017"/>
<path d="M24.0339 26.1974C24.2002 26.3152 24.3912 26.3713 24.5813 26.3713C24.8797 26.3713 25.1742 26.2316 25.3586 25.9693C25.6608 25.5398 25.5591 24.9477 25.1305 24.6446C23.7222 23.6506 22.9201 21.6407 22.75 20.0907C22.7054 19.6868 22.4089 19.3751 22.0392 19.2792C21.6733 19.7134 21.2989 20.1639 20.9131 20.64C21.1868 22.4465 22.1323 24.8565 24.0339 26.1974Z" fill="#DD7017"/>
<path d="M29.2865 36.9929C27.4904 36.7021 25.1346 35.7556 23.8146 33.8844C23.5124 33.4558 23.6151 32.8628 24.0437 32.5597C24.4713 32.2575 25.0652 32.3601 25.3684 32.7887C26.3615 34.1961 28.3714 34.9991 29.9222 35.1692C30.3385 35.2148 30.6502 35.5256 30.7357 35.9124" fill="#DD7017"/>
<path d="M29.9234 35.1597C28.3716 34.9896 26.3617 34.1875 25.3696 32.7792C25.0674 32.3506 24.4725 32.247 24.0448 32.5501C23.6153 32.8523 23.5127 33.4453 23.8158 33.8749C25.1358 35.746 27.4916 36.6925 29.2877 36.9833C29.7809 36.6194 30.2646 36.2601 30.7369 35.9038C30.6513 35.5161 30.3387 35.2053 29.9234 35.1597Z" fill="#DD7017"/>
<path d="M14.4697 29.2212C14.8489 29.3106 15.1539 29.6242 15.1995 30.0347C15.306 31.0087 15.803 32.2669 16.6715 32.8808C17.1001 33.183 17.2028 33.776 16.8996 34.2056C16.7143 34.4678 16.4207 34.6075 16.1223 34.6075C15.9332 34.6075 15.7421 34.5515 15.5749 34.4336C14.3129 33.5432 13.6363 32.0009 13.3901 30.7607" fill="#DD7017"/>
<path d="M15.5754 34.4336C15.7417 34.5515 15.9327 34.6075 16.1227 34.6075C16.4211 34.6075 16.7148 34.4678 16.9001 34.2056C17.2023 33.777 17.1006 33.184 16.672 32.8808C15.8025 32.2669 15.3064 31.0097 15.2 30.0347C15.1553 29.6232 14.8503 29.3096 14.4702 29.2212C14.11 29.7296 13.7508 30.2428 13.3906 30.7607C13.6368 32.0009 14.3134 33.5432 15.5754 34.4336Z" fill="#DD7017"/>
<path d="M17.575 45.0314C16.2854 44.8632 14.4922 44.1876 13.503 42.784C13.2008 42.3544 13.3024 41.7624 13.731 41.4592C14.1606 41.1551 14.7536 41.2597 15.0557 41.6873C15.6696 42.5568 16.9269 43.0529 17.901 43.1593C18.4227 43.2163 18.799 43.6858 18.742 44.2075C18.7391 44.237 18.723 44.2617 18.7173 44.2902" fill="#DD7017"/>
<path d="M17.9009 43.1603C16.9268 43.0539 15.6686 42.5569 15.0557 41.6883C14.7535 41.2597 14.1614 41.1561 13.7309 41.4602C13.3024 41.7624 13.1997 42.3554 13.5029 42.785C14.4931 44.1886 16.2854 44.8642 17.5749 45.0324C17.9551 44.7882 18.3361 44.5402 18.7172 44.2921C18.7229 44.2636 18.7391 44.2389 18.7419 44.2095C18.7999 43.6877 18.4226 43.2173 17.9009 43.1603Z" fill="#DD7017"/>
<path d="M267.082 19.0206C265.967 19.0206 265.094 19.3769 264.462 20.0894C263.83 20.7905 263.468 21.7905 263.376 23.0892H270.754C270.731 21.7905 270.392 20.7905 269.737 20.0894C269.082 19.3769 268.197 19.0206 267.082 19.0206ZM267.824 35.2607C264.72 35.2607 262.295 34.4045 260.548 32.6919C258.801 30.9794 257.928 28.5543 257.928 25.4166C257.928 22.187 258.732 19.6929 260.341 17.9344C261.962 16.1644 264.197 15.2795 267.048 15.2795C269.772 15.2795 271.892 16.0553 273.409 17.6069C274.926 19.1585 275.685 21.302 275.685 24.0374V26.589H263.255C263.312 28.0831 263.755 29.2497 264.582 30.0887C265.41 30.9277 266.571 31.3472 268.065 31.3472C269.226 31.3472 270.323 31.2265 271.358 30.9852C272.392 30.7438 273.473 30.3588 274.599 29.8301V33.8987C273.679 34.3585 272.697 34.6975 271.651 34.9159C270.605 35.1458 269.329 35.2607 267.824 35.2607Z" fill="white"/>
<path d="M256.409 29.1922C256.409 31.1691 255.72 32.6747 254.34 33.7091C252.973 34.7435 250.921 35.2607 248.186 35.2607C246.783 35.2607 245.588 35.163 244.6 34.9676C243.611 34.7837 242.686 34.5079 241.824 34.1401V29.7956C242.801 30.2553 243.899 30.6404 245.117 30.9507C246.347 31.261 247.427 31.4162 248.358 31.4162C250.266 31.4162 251.22 30.8645 251.22 29.7611C251.22 29.3474 251.093 29.0141 250.841 28.7612C250.588 28.4969 250.151 28.2038 249.53 27.882C248.91 27.5487 248.082 27.1636 247.048 26.7269C245.565 26.1062 244.473 25.5316 243.772 25.0029C243.083 24.4742 242.577 23.8708 242.255 23.1927C241.945 22.5031 241.79 21.6583 241.79 20.6584C241.79 18.9458 242.45 17.6241 243.772 16.6931C245.105 15.7507 246.99 15.2795 249.427 15.2795C251.749 15.2795 254.007 15.7852 256.202 16.7966L254.616 20.5894C253.651 20.1756 252.748 19.8366 251.909 19.5722C251.07 19.3079 250.214 19.1757 249.341 19.1757C247.789 19.1757 247.013 19.5952 247.013 20.4342C247.013 20.9055 247.26 21.3135 247.755 21.6583C248.26 22.0031 249.358 22.5145 251.047 23.1927C252.553 23.8018 253.656 24.3707 254.358 24.8994C255.059 25.4281 255.576 26.0373 255.909 26.7269C256.242 27.4165 256.409 28.2383 256.409 29.1922Z" fill="white"/>
<path d="M234.823 34.9159L234.116 32.4506H233.84C233.277 33.3471 232.478 34.0424 231.444 34.5366C230.41 35.0194 229.231 35.2607 227.91 35.2607C225.646 35.2607 223.939 34.6573 222.789 33.4505C221.64 32.2322 221.065 30.4852 221.065 28.2095V15.6415H226.324V26.8993C226.324 28.29 226.571 29.3359 227.065 30.037C227.559 30.7266 228.346 31.0714 229.427 31.0714C230.898 31.0714 231.961 30.5829 232.616 29.606C233.271 28.6175 233.599 26.9855 233.599 24.7098V15.6415H238.857V34.9159H234.823Z" fill="white"/>
<path d="M204.91 25.2442C204.91 27.1521 205.221 28.5945 205.841 29.5715C206.474 30.5484 207.497 31.0369 208.91 31.0369C210.312 31.0369 211.318 30.5542 211.927 29.5887C212.548 28.6118 212.858 27.1636 212.858 25.2442C212.858 23.3363 212.548 21.9054 211.927 20.9514C211.307 19.9975 210.289 19.5205 208.876 19.5205C207.474 19.5205 206.462 19.9975 205.841 20.9514C205.221 21.8939 204.91 23.3248 204.91 25.2442ZM218.237 25.2442C218.237 28.3819 217.41 30.8358 215.755 32.6057C214.099 34.3757 211.795 35.2607 208.841 35.2607C206.991 35.2607 205.359 34.8584 203.945 34.0539C202.531 33.2379 201.445 32.0713 200.687 30.5542C199.928 29.037 199.549 27.2671 199.549 25.2442C199.549 22.095 200.371 19.6469 202.014 17.8999C203.658 16.153 205.968 15.2795 208.945 15.2795C210.795 15.2795 212.427 15.6817 213.841 16.4863C215.255 17.2908 216.341 18.4459 217.099 19.9515C217.858 21.4572 218.237 23.2214 218.237 25.2442Z" fill="white"/>
<path d="M196.168 34.9159H190.841V24.0374H180.859V34.9159H175.515V9.71091H180.859V19.5895H190.841V9.71091H196.168V34.9159Z" fill="white"/>
<path d="M162.465 29.1922C162.465 31.1691 161.776 32.6747 160.396 33.7091C159.029 34.7435 156.977 35.2607 154.242 35.2607C152.84 35.2607 151.644 35.163 150.656 34.9676C149.667 34.7837 148.742 34.5079 147.88 34.1401V29.7956C148.857 30.2553 149.955 30.6404 151.173 30.9507C152.403 31.261 153.483 31.4162 154.414 31.4162C156.322 31.4162 157.276 30.8645 157.276 29.7611C157.276 29.3474 157.15 29.0141 156.897 28.7612C156.644 28.4969 156.207 28.2038 155.587 27.882C154.966 27.5487 154.138 27.1636 153.104 26.7269C151.621 26.1062 150.529 25.5316 149.828 25.0029C149.139 24.4742 148.633 23.8708 148.311 23.1927C148.001 22.5031 147.846 21.6583 147.846 20.6584C147.846 18.9458 148.507 17.6241 149.828 16.6931C151.162 15.7507 153.046 15.2795 155.483 15.2795C157.805 15.2795 160.063 15.7852 162.258 16.7966L160.672 20.5894C159.707 20.1756 158.805 19.8366 157.966 19.5722C157.127 19.3079 156.27 19.1757 155.397 19.1757C153.845 19.1757 153.069 19.5952 153.069 20.4342C153.069 20.9055 153.317 21.3135 153.811 21.6583C154.316 22.0031 155.414 22.5145 157.104 23.1927C158.609 23.8018 159.713 24.3707 160.414 24.8994C161.115 25.4281 161.632 26.0373 161.965 26.7269C162.299 27.4165 162.465 28.2383 162.465 29.1922Z" fill="white"/>
<path d="M147.976 13.521C147.252 13.0153 146.189 12.1992 144.787 11.0729C143.385 9.93503 142.293 8.98683 141.511 8.22826V7.86622H147.407C148.131 9.02705 149.482 10.7568 151.459 13.0555V13.521H147.976Z" fill="white"/>
<path d="M138.395 19.5895H133.844V34.9159H128.586V19.5895H125.689V17.0552L128.586 15.6415V14.2278C128.586 12.0326 129.126 10.4292 130.206 9.41783C131.287 8.40641 133.016 7.9007 135.396 7.9007C137.212 7.9007 138.826 8.17079 140.24 8.71098L138.895 12.5728C137.838 12.2395 136.861 12.0728 135.965 12.0728C135.217 12.0728 134.677 12.2969 134.344 12.7452C134.011 13.1819 133.844 13.7451 133.844 14.4347V15.6415H138.395V19.5895Z" fill="white"/>
<path d="M116.275 19.0206C115.16 19.0206 114.287 19.3769 113.655 20.0894C113.022 20.7905 112.66 21.7905 112.568 23.0892H119.947C119.924 21.7905 119.585 20.7905 118.93 20.0894C118.275 19.3769 117.39 19.0206 116.275 19.0206ZM117.016 35.2607C113.913 35.2607 111.488 34.4045 109.741 32.6919C107.994 30.9794 107.121 28.5543 107.121 25.4166C107.121 22.187 107.925 19.6929 109.534 17.9344C111.155 16.1644 113.39 15.2795 116.241 15.2795C118.965 15.2795 121.085 16.0553 122.602 17.6069C124.119 19.1585 124.878 21.302 124.878 24.0374V26.589H112.448C112.505 28.0831 112.948 29.2497 113.775 30.0887C114.603 30.9277 115.764 31.3472 117.258 31.3472C118.419 31.3472 119.516 31.2265 120.551 30.9852C121.585 30.7438 122.665 30.3588 123.792 29.8301V33.8987C122.872 34.3585 121.89 34.6975 120.844 34.9159C119.798 35.1458 118.522 35.2607 117.016 35.2607Z" fill="white"/>
<path d="M104.292 34.9159H99.0335V23.6581C99.0335 20.8767 97.9991 19.486 95.9303 19.486C94.4592 19.486 93.396 19.986 92.7409 20.9859C92.0858 21.9859 91.7582 23.6064 91.7582 25.8476V34.9159H86.5V8.09034H91.7582V13.5555C91.7582 13.9807 91.718 14.9806 91.6375 16.5552L91.5169 18.1068H91.7927C92.965 16.2219 94.827 15.2795 97.3785 15.2795C99.6427 15.2795 101.361 15.8886 102.533 17.1069C103.706 18.3252 104.292 20.0722 104.292 22.3479V34.9159Z" fill="white"/>
<path d="M76.5166 13.7968C74.5053 13.7968 72.9479 14.5554 71.8446 16.0725C70.7412 17.5781 70.1895 19.6814 70.1895 22.3824C70.1895 28.0026 72.2986 30.8128 76.5166 30.8128C78.2866 30.8128 80.4301 30.3703 82.9472 29.4853V33.9677C80.8784 34.8297 78.5682 35.2607 76.0167 35.2607C72.3503 35.2607 69.5459 34.1516 67.6035 31.9334C65.6611 29.7037 64.6899 26.5085 64.6899 22.3479C64.6899 19.7274 65.1669 17.4345 66.1209 15.4691C67.0748 13.4922 68.4425 11.9809 70.224 10.935C72.017 9.87757 74.1145 9.34887 76.5166 9.34887C78.9647 9.34887 81.4243 9.94078 83.8954 11.1246L82.1714 15.4691C81.2289 15.0209 80.2807 14.6301 79.3268 14.2968C78.3728 13.9635 77.4361 13.7968 76.5166 13.7968Z" fill="white"/>
<path d="M70.9516 42.2519V52.1854H71.917V56.2282H70.7555V53.2791H65.6794V56.2282H64.5178V52.1854H65.1816C65.4631 51.3557 65.7045 50.5436 65.9056 49.7491C66.1118 48.9496 66.2802 48.1476 66.411 47.3431C66.5468 46.5385 66.6498 45.7164 66.7202 44.8767C66.7906 44.0369 66.8334 43.162 66.8485 42.2519H70.9516ZM69.7523 43.3229H67.9723C67.9421 44.1375 67.8868 44.932 67.8064 45.7063C67.7309 46.4807 67.6278 47.2375 67.4971 47.9766C67.3714 48.7108 67.2206 49.4298 67.0446 50.1338C66.8686 50.8328 66.6674 51.5166 66.4412 52.1854H69.7523V43.3229ZM78.3584 49.1307C78.3584 49.7843 78.3031 50.3752 78.1924 50.9032C78.0818 51.4311 77.9134 51.8837 77.6871 52.2608C77.4608 52.6379 77.1742 52.9271 76.8272 53.1282C76.4803 53.3293 76.0705 53.4299 75.5978 53.4299C75.1452 53.4299 74.748 53.3293 74.4061 53.1282C74.0641 52.9271 73.78 52.6405 73.5538 52.2684C73.3275 51.8912 73.1565 51.4387 73.0409 50.9107C72.9252 50.3777 72.8674 49.7843 72.8674 49.1307C72.8674 48.2155 72.9655 47.4411 73.1616 46.8076C73.3577 46.169 73.6594 45.6837 74.0667 45.3518C74.474 45.0149 74.9919 44.8465 75.6204 44.8465C76.2087 44.8465 76.7066 45.0099 77.1138 45.3368C77.5211 45.6586 77.8304 46.1388 78.0416 46.7774C78.2528 47.411 78.3584 48.1954 78.3584 49.1307ZM74.0516 49.1307C74.0516 49.8497 74.1069 50.4531 74.2175 50.9409C74.3281 51.4286 74.4991 51.7957 74.7304 52.0421C74.9667 52.2885 75.2659 52.4117 75.628 52.4117C75.985 52.4117 76.2766 52.291 76.5029 52.0496C76.7342 51.8083 76.9052 51.4462 77.0158 50.9635C77.1264 50.4757 77.1817 49.8648 77.1817 49.1307C77.1817 48.4116 77.1264 47.8107 77.0158 47.328C76.9052 46.8402 76.7342 46.4757 76.5029 46.2343C76.2766 45.9879 75.9825 45.8647 75.6204 45.8647C75.0673 45.8647 74.6676 46.1388 74.4212 46.6869C74.1748 47.2299 74.0516 48.0445 74.0516 49.1307ZM86.6401 44.9973V53.2791H85.5238V48.7083C85.5238 48.4719 85.5313 48.1702 85.5464 47.8032C85.5665 47.4311 85.5917 47.0037 85.6218 46.5209H85.5615L83.8342 53.2791H82.8009L81.0963 46.5209H81.0284C81.0536 46.9433 81.0737 47.3506 81.0888 47.7428C81.1089 48.13 81.1189 48.4418 81.1189 48.6781V53.2791H80.0253V44.9973H81.6771L83.3289 51.6423L85.0033 44.9973H86.6401ZM90.8714 44.8465C91.6357 44.8465 92.1813 45.0904 92.5082 45.5781C92.835 46.0659 92.9984 46.7724 92.9984 47.6976V53.2791H92.116L91.9425 52.1024H91.9123C91.7816 52.384 91.6257 52.6254 91.4447 52.8265C91.2636 53.0226 91.0575 53.1735 90.8262 53.2791C90.5949 53.3796 90.3284 53.4299 90.0267 53.4299C89.5993 53.4299 89.2498 53.3168 88.9783 53.0905C88.7067 52.8642 88.5056 52.5675 88.3749 52.2005C88.2441 51.8284 88.1788 51.4286 88.1788 51.0012C88.1788 50.1816 88.4151 49.5455 88.8877 49.0929C89.3604 48.6404 90.0317 48.394 90.9016 48.3538L91.8444 48.2934V47.7277C91.8444 47.064 91.7539 46.5788 91.5729 46.272C91.3919 45.9653 91.1002 45.8119 90.698 45.8119C90.4667 45.8119 90.2228 45.8522 89.9663 45.9326C89.7149 46.0131 89.4409 46.1413 89.1442 46.3173L88.7746 45.4424C89.0864 45.2412 89.4182 45.0929 89.7702 44.9973C90.1272 44.8968 90.4943 44.8465 90.8714 44.8465ZM91.8595 49.1457L91.0902 49.1985C90.5069 49.2337 90.0719 49.3997 89.7853 49.6963C89.5037 49.988 89.3629 50.4129 89.3629 50.971C89.3629 51.489 89.456 51.8711 89.642 52.1175C89.8281 52.3639 90.0845 52.4871 90.4113 52.4871C90.8689 52.4871 91.2234 52.2658 91.4748 51.8233C91.7313 51.3808 91.8595 50.7699 91.8595 49.9905V49.1457ZM102.464 47.0338C102.464 47.5216 102.366 47.9213 102.17 48.2331C101.974 48.5449 101.67 48.756 101.258 48.8667V48.927C101.715 49.0075 102.067 49.2161 102.313 49.553C102.56 49.8899 102.683 50.3199 102.683 50.8428C102.683 51.3557 102.588 51.7957 102.396 52.1628C102.21 52.5248 101.934 52.8014 101.567 52.9924C101.2 53.1835 100.742 53.2791 100.194 53.2791H97.8709V44.9973H100.073C100.601 44.9973 101.041 45.0753 101.393 45.2312C101.75 45.387 102.017 45.6158 102.193 45.9175C102.374 46.2192 102.464 46.5913 102.464 47.0338ZM101.514 50.7523C101.514 50.2595 101.401 49.9101 101.175 49.7039C100.948 49.4927 100.616 49.3871 100.179 49.3871H99.0325V52.3438H100.141C100.614 52.3438 100.961 52.2156 101.182 51.9591C101.403 51.7027 101.514 51.3004 101.514 50.7523ZM101.295 47.1319C101.295 46.7447 101.19 46.448 100.978 46.2419C100.767 46.0357 100.445 45.9326 100.013 45.9326H99.0325V48.4745H100.149C100.551 48.4745 100.843 48.3663 101.024 48.1501C101.205 47.9289 101.295 47.5895 101.295 47.1319ZM107.714 44.9973H108.989L106.605 48.9044L109.177 53.2791H107.865L105.459 48.9798V53.2791H104.297V44.9973H105.459V48.9119L107.714 44.9973ZM109.32 44.9973H110.52L111.689 49.8397C111.734 50.0508 111.777 50.257 111.817 50.4581C111.862 50.6593 111.903 50.8604 111.938 51.0615C111.978 51.2577 112.011 51.4563 112.036 51.6574H112.096C112.136 51.3658 112.187 51.0716 112.247 50.7749C112.307 50.4732 112.378 50.159 112.458 49.8321L113.597 44.9973H114.789L112.33 54.6065C112.184 55.1597 112.013 55.6122 111.817 55.9642C111.621 56.3162 111.39 56.5751 111.123 56.7411C110.862 56.907 110.55 56.99 110.188 56.99C110.067 56.99 109.947 56.9774 109.826 56.9523C109.705 56.9271 109.577 56.897 109.441 56.8618V55.8284C109.537 55.8636 109.635 55.8913 109.735 55.9114C109.841 55.9315 109.941 55.9416 110.037 55.9416C110.228 55.9416 110.392 55.8913 110.527 55.7907C110.663 55.6952 110.784 55.5343 110.889 55.308C110.995 55.0817 111.098 54.7725 111.199 54.3803L111.493 53.2187L109.32 44.9973ZM118.258 53.4299C117.65 53.4299 117.142 53.2715 116.735 52.9547C116.333 52.6379 116.031 52.1653 115.83 51.5367C115.629 50.9082 115.528 50.1288 115.528 49.1985C115.528 48.2884 115.629 47.509 115.83 46.8604C116.036 46.2117 116.345 45.7139 116.757 45.3669C117.17 45.02 117.685 44.8465 118.304 44.8465C118.615 44.8465 118.894 44.8792 119.141 44.9445C119.392 45.0099 119.626 45.1029 119.842 45.2236L119.473 46.1815C119.287 46.081 119.101 46.0055 118.915 45.9552C118.734 45.905 118.555 45.8798 118.379 45.8798C118.017 45.8798 117.713 46.0055 117.466 46.2569C117.22 46.5033 117.031 46.8704 116.901 47.3582C116.775 47.8459 116.712 48.4543 116.712 49.1835C116.712 49.8925 116.773 50.4858 116.893 50.9635C117.019 51.4412 117.205 51.8032 117.451 52.0496C117.703 52.291 118.015 52.4117 118.387 52.4117C118.608 52.4117 118.832 52.3815 119.058 52.3212C119.289 52.2558 119.521 52.1628 119.752 52.0421V53.0226C119.541 53.1533 119.294 53.2539 119.013 53.3243C118.736 53.3947 118.485 53.4299 118.258 53.4299ZM122.339 44.9973V48.4745H125.024V44.9973H126.186V53.2791H125.024V49.4776H122.339V53.2791H121.177V44.9973H122.339ZM130.485 44.8616C131.048 44.8616 131.511 45.025 131.873 45.3518C132.24 45.6787 132.511 46.1187 132.687 46.6718C132.868 47.2249 132.959 47.8409 132.959 48.5197V49.3418H129.014C129.024 50.3727 129.183 51.147 129.489 51.6649C129.801 52.1829 130.269 52.4418 130.892 52.4418C131.189 52.4418 131.48 52.3966 131.767 52.3061C132.054 52.2156 132.35 52.0697 132.657 51.8686V52.9095C132.37 53.0855 132.071 53.2162 131.76 53.3017C131.448 53.3872 131.116 53.4299 130.764 53.4299C130.075 53.4299 129.517 53.2464 129.089 52.8793C128.662 52.5072 128.35 52.0018 128.154 51.3632C127.963 50.7196 127.868 49.993 127.868 49.1835C127.868 48.2582 127.966 47.4738 128.162 46.8302C128.358 46.1866 128.65 45.6988 129.037 45.3669C129.429 45.03 129.912 44.8616 130.485 44.8616ZM130.485 45.8119C130.047 45.8119 129.705 46.0256 129.459 46.4531C129.213 46.8754 129.069 47.5291 129.029 48.4141H131.873C131.873 47.9465 131.822 47.5166 131.722 47.1243C131.626 46.7271 131.475 46.4103 131.269 46.174C131.068 45.9326 130.807 45.8119 130.485 45.8119ZM136.881 44.8616C137.444 44.8616 137.907 45.025 138.269 45.3518C138.636 45.6787 138.907 46.1187 139.083 46.6718C139.264 47.2249 139.355 47.8409 139.355 48.5197V49.3418H135.41C135.42 50.3727 135.579 51.147 135.885 51.6649C136.197 52.1829 136.665 52.4418 137.288 52.4418C137.585 52.4418 137.877 52.3966 138.163 52.3061C138.45 52.2156 138.746 52.0697 139.053 51.8686V52.9095C138.767 53.0855 138.467 53.2162 138.156 53.3017C137.844 53.3872 137.512 53.4299 137.16 53.4299C136.471 53.4299 135.913 53.2464 135.486 52.8793C135.058 52.5072 134.746 52.0018 134.55 51.3632C134.359 50.7196 134.264 49.993 134.264 49.1835C134.264 48.2582 134.362 47.4738 134.558 46.8302C134.754 46.1866 135.046 45.6988 135.433 45.3669C135.825 45.03 136.308 44.8616 136.881 44.8616ZM136.881 45.8119C136.443 45.8119 136.102 46.0256 135.855 46.4531C135.609 46.8754 135.465 47.5291 135.425 48.4141H138.269C138.269 47.9465 138.218 47.5166 138.118 47.1243C138.022 46.7271 137.872 46.4103 137.665 46.174C137.464 45.9326 137.203 45.8119 136.881 45.8119ZM142.206 50.2243H141.331L141.059 42.2519H142.462L142.206 50.2243ZM140.992 52.472C140.992 52.1653 141.057 51.9315 141.188 51.7705C141.318 51.6096 141.515 51.5292 141.776 51.5292C142.017 51.5292 142.208 51.6046 142.349 51.7555C142.49 51.9013 142.56 52.1401 142.56 52.472C142.56 52.7938 142.485 53.0301 142.334 53.181C142.188 53.3319 142.002 53.4073 141.776 53.4073C141.52 53.4073 141.323 53.3293 141.188 53.1735C141.057 53.0125 140.992 52.7787 140.992 52.472Z" fill="white"/>
</svg>
