<svg width="636" height="316" viewBox="0 0 636 316" fill="none" xmlns="http://www.w3.org/2000/svg">
<g clip-path="url(#clip0_1317_3166)">
<path opacity="0.1" d="M242.461 26.8199C169.235 89.6479 49.511 262.216 -19.6947 368.07C-30.6221 384.784 -18.2037 406.746 1.76423 406.52C268.901 403.494 459.224 424.321 581.571 369.939C710.94 312.435 770.687 128.409 652.065 14.1689C546.977 -87.0373 330.035 -48.3181 242.461 26.8199Z" fill="#EB8E22"/>
<g opacity="0.2">
<path fill-rule="evenodd" clip-rule="evenodd" d="M336.955 245.231C319.117 214.335 370.274 130.929 462.154 77.8819C554.035 24.8347 651.845 22.2343 669.683 53.1304L710.847 124.429C728.685 155.325 677.528 238.731 585.648 291.778C493.767 344.826 395.957 347.426 378.119 316.53L336.955 245.231Z" stroke="#EB8E22" stroke-width="3.1386" stroke-linecap="round" stroke-linejoin="round"/>
<path fill-rule="evenodd" clip-rule="evenodd" d="M544.264 220.099C636.144 167.052 688.591 85.8804 669.655 53.0829C650.706 20.2617 554.035 24.8347 462.154 77.8819C370.274 130.929 317.978 212.362 336.927 245.183C355.863 277.981 452.383 273.146 544.264 220.099Z" stroke="#EB8E22" stroke-width="3.1386" stroke-linecap="round" stroke-linejoin="round"/>
<path d="M536.296 87.7487C536.434 87.651 536.603 87.651 536.623 87.7487L543.481 120.138C543.488 120.17 543.511 120.193 543.548 120.204L580.74 131.652C580.852 131.686 580.822 131.824 580.681 131.919L533.97 163.384C533.925 163.415 533.888 163.452 533.866 163.491L511.071 202.955C511.002 203.074 510.814 203.159 510.706 203.12L474.98 190.177C474.945 190.164 474.899 190.164 474.849 190.177L423.568 203.12C423.413 203.159 423.328 203.074 423.402 202.955L448.032 163.491C448.056 163.452 448.065 163.415 448.056 163.384L439.158 131.919C439.131 131.824 439.266 131.686 439.42 131.652L490.369 120.204C490.418 120.193 490.47 120.17 490.514 120.138L536.296 87.7487Z" fill="#EB8E22"/>
</g>
</g>
<defs>
<clipPath id="clip0_1317_3166">
<rect width="636" height="316" rx="25" fill="white"/>
</clipPath>
</defs>
</svg>
