<svg width="340" height="409" viewBox="0 0 340 409" fill="none" xmlns="http://www.w3.org/2000/svg">
<g clip-path="url(#clip0_3101_15546)">
<path opacity="0.1" d="M33.4614 96.8199C-39.7646 159.648 -159.489 332.216 -228.695 438.07C-239.622 454.784 -227.204 476.746 -207.236 476.52C59.9015 473.494 250.224 494.321 372.571 439.939C501.94 382.435 561.687 198.409 443.065 84.1689C337.977 -17.0373 121.035 21.6819 33.4614 96.8199Z" fill="#EB8E22"/>
<g opacity="0.2">
<path fill-rule="evenodd" clip-rule="evenodd" d="M153.683 306.221C141.043 284.329 177.292 225.23 242.395 187.642C307.499 150.054 376.805 148.212 389.444 170.104L418.612 220.624C431.252 242.516 395.003 301.615 329.899 339.203C264.795 376.791 195.49 378.634 182.851 356.741L153.683 306.221Z" stroke="#EB8E22" stroke-width="3.1386" stroke-linecap="round" stroke-linejoin="round"/>
<path fill-rule="evenodd" clip-rule="evenodd" d="M300.576 288.413C365.68 250.826 402.842 193.31 389.425 170.07C375.998 146.814 307.499 150.054 242.395 187.642C177.292 225.23 140.236 282.931 153.663 306.187C167.08 329.427 235.472 326.001 300.576 288.413Z" stroke="#EB8E22" stroke-width="3.1386" stroke-linecap="round" stroke-linejoin="round"/>
<path d="M294.847 194.692C294.985 194.594 295.154 194.594 295.175 194.692L300.019 217.57C300.025 217.601 300.049 217.624 300.085 217.636L326.355 225.721C326.467 225.756 326.437 225.893 326.296 225.988L293.303 248.213C293.258 248.243 293.221 248.281 293.198 248.319L277.098 276.194C277.029 276.313 276.841 276.398 276.734 276.359L251.499 267.217C251.464 267.204 251.418 267.204 251.368 267.217L215.148 276.359C214.993 276.398 214.907 276.313 214.982 276.194L232.378 248.319C232.402 248.281 232.411 248.243 232.402 248.213L226.117 225.988C226.09 225.893 226.225 225.756 226.379 225.721L262.365 217.636C262.415 217.624 262.466 217.601 262.511 217.57L294.847 194.692Z" fill="#EB8E22"/>
</g>
</g>
<defs>
<clipPath id="clip0_3101_15546">
<rect x="-209" width="636" height="409" rx="25" fill="white"/>
</clipPath>
</defs>
</svg>
