<svg width="15" height="14" viewBox="0 0 15 14" fill="none" xmlns="http://www.w3.org/2000/svg">
<path d="M1.26954 5.75587H3.72978V12.3068H1.27058C1.20233 12.3069 1.13472 12.2936 1.07163 12.2675C1.00854 12.2415 0.951192 12.2033 0.902884 12.1551C0.854575 12.1069 0.816248 12.0496 0.790098 11.9866C0.763948 11.9235 0.750488 11.856 0.750488 11.7877V6.27492C0.750488 6.13726 0.805173 6.00524 0.902514 5.9079C0.999854 5.81056 1.13188 5.75587 1.26954 5.75587Z" stroke="#646468" stroke-width="1.5" stroke-linecap="round" stroke-linejoin="round"/>
<path d="M3.74045 12.3371L4.48867 12.7107C4.77854 12.8551 5.09771 12.9294 5.42212 12.9284H12.2336C12.522 12.928 12.8004 12.8223 13.0164 12.6311C13.2324 12.44 13.3712 12.1765 13.4067 11.8903L14.2365 6.5334C14.2617 6.36673 14.2513 6.19661 14.206 6.03425C14.1607 5.87189 14.0815 5.72097 13.9737 5.59145C13.8658 5.46192 13.7317 5.35673 13.5802 5.28279C13.4287 5.20886 13.2633 5.16787 13.0948 5.16252H8.5364V2.14137C8.53496 1.98754 8.50273 1.83556 8.44161 1.69439C8.38049 1.55322 8.29172 1.42571 8.18053 1.3194C8.06934 1.21309 7.93798 1.13012 7.79421 1.07539C7.65044 1.02066 7.49717 0.995269 7.34343 1.00072C7.1479 0.998668 6.95517 1.04733 6.78405 1.14197C6.61293 1.23661 6.46927 1.37399 6.36708 1.5407L3.72998 5.75587V12.3068" stroke="#646468" stroke-width="1.5" stroke-linecap="round" stroke-linejoin="round"/>
</svg>
