<svg width="86" height="86" viewBox="0 0 86 86" fill="none" xmlns="http://www.w3.org/2000/svg">
<path d="M22.18 16.4594C22.3352 16.2367 22.6648 16.2367 22.82 16.4595L30.4239 27.3762C30.474 27.4481 30.5469 27.5011 30.6308 27.5265L43.3629 31.3847C43.6228 31.4635 43.7246 31.777 43.5607 31.9935L35.528 42.5986C35.4751 42.6685 35.4472 42.7542 35.449 42.8418L35.714 56.1431C35.7194 56.4145 35.4527 56.6083 35.1962 56.5193L22.6279 52.1569C22.5451 52.1281 22.4549 52.1281 22.3721 52.1569L9.80379 56.5193C9.54729 56.6083 9.28058 56.4145 9.28599 56.1431L9.55105 42.8418C9.55279 42.7542 9.52495 42.6685 9.47201 42.5986L1.4393 31.9935C1.27536 31.777 1.37724 31.4635 1.63708 31.3847L14.3692 27.5265C14.4531 27.5011 14.526 27.4481 14.5761 27.3762L22.18 16.4594Z" fill="white"/>
<path d="M59.18 12.4594C59.3352 12.2367 59.6648 12.2367 59.82 12.4595L64.2234 18.7813C64.2735 18.8532 64.3464 18.9062 64.4303 18.9316L71.8034 21.1659C72.0633 21.2446 72.1651 21.5582 72.0012 21.7746L67.3495 27.916C67.2965 27.9859 67.2687 28.0716 67.2705 28.1592L67.4239 35.8619C67.4294 36.1334 67.1626 36.3272 66.9061 36.2381L59.6279 33.7119C59.5451 33.6831 59.4549 33.6831 59.3721 33.7119L52.0939 36.2381C51.8374 36.3272 51.5706 36.1334 51.5761 35.8619L51.7295 28.1592C51.7313 28.0716 51.7035 27.9859 51.6505 27.916L46.9988 21.7746C46.8349 21.5582 46.9367 21.2446 47.1966 21.1659L54.5697 18.9316C54.6536 18.9062 54.7265 18.8532 54.7766 18.7813L59.18 12.4594Z" fill="white"/>
<path d="M72.18 59.4594C72.3352 59.2367 72.6648 59.2367 72.82 59.4595L77.2234 65.7813C77.2735 65.8532 77.3464 65.9062 77.4303 65.9316L84.8034 68.1659C85.0633 68.2446 85.1651 68.5582 85.0012 68.7746L80.3495 74.916C80.2965 74.9859 80.2687 75.0716 80.2705 75.1592L80.4239 82.8619C80.4294 83.1334 80.1626 83.3272 79.9061 83.2381L72.6279 80.7119C72.5451 80.6831 72.4549 80.6831 72.3721 80.7119L65.0939 83.2381C64.8374 83.3272 64.5706 83.1334 64.5761 82.8619L64.7295 75.1592C64.7313 75.0716 64.7035 74.9859 64.6505 74.916L59.9988 68.7746C59.8349 68.5582 59.9367 68.2446 60.1966 68.1659L67.5697 65.9316C67.6536 65.9062 67.7265 65.8532 67.7766 65.7813L72.18 59.4594Z" fill="white"/>
</svg>
