<svg width="16" height="16" viewBox="0 0 16 16" fill="none" xmlns="http://www.w3.org/2000/svg">
<g clip-path="url(#clip0_5115_279)">
<path fill-rule="evenodd" clip-rule="evenodd" d="M15.833 0.166788C15.9114 0.245057 15.9653 0.344407 15.9882 0.452754C16.0112 0.561101 16.0021 0.673776 15.9622 0.777074L10.2479 15.6342C10.2075 15.7393 10.1368 15.8302 10.0449 15.8953C9.95302 15.9604 9.84391 15.9969 9.73131 16.0002C9.61872 16.0035 9.50766 15.9735 9.4121 15.9138C9.31653 15.8542 9.24072 15.7677 9.19419 15.6651L6.80448 10.4079L10.3199 6.89136C10.4713 6.72887 10.5537 6.51396 10.5498 6.2919C10.5459 6.06985 10.4559 5.85798 10.2989 5.70093C10.1419 5.54389 9.92999 5.45393 9.70793 5.45002C9.48587 5.4461 9.27096 5.52852 9.10848 5.67993L5.59191 9.19536L0.334762 6.80679C0.231867 6.76032 0.145044 6.68441 0.0852508 6.58864C0.0254578 6.49287 -0.00462542 6.38153 -0.001202 6.26868C0.00222141 6.15583 0.038998 6.04652 0.104486 5.95456C0.169974 5.86259 0.261239 5.79208 0.366762 5.75193L15.2239 0.0376453C15.3271 -0.002041 15.4395 -0.0109639 15.5476 0.0119575C15.6557 0.0348789 15.7549 0.088661 15.833 0.166788Z" fill="#646468"/>
</g>
<defs>
<clipPath id="clip0_5115_279">
<rect width="16" height="16" fill="white"/>
</clipPath>
</defs>
</svg>
