<svg width="31" height="18" viewBox="0 0 31 18" fill="none" xmlns="http://www.w3.org/2000/svg">
<path fill-rule="evenodd" clip-rule="evenodd" d="M29.5594 1.21886C29.7669 0.516857 29.5594 0 28.5657 0H25.2845C24.4496 0 24.0646 0.446143 23.8558 0.938571C23.8558 0.938571 22.1871 5.04771 19.8234 7.71686C19.0584 8.49086 18.7109 8.73643 18.2934 8.73643C18.0847 8.73643 17.7709 8.49086 17.7709 7.78757V1.21886C17.7709 0.375428 17.5409 0 16.846 0H11.6861C11.1648 0 10.8511 0.390857 10.8511 0.762428C10.8511 1.56086 12.0336 1.746 12.1548 3.99343V8.87657C12.1548 9.94757 11.9636 10.1417 11.5461 10.1417C10.4336 10.1417 7.7274 6.01329 6.12119 1.28957C5.80994 0.370285 5.49495 0 4.65622 0H1.37253C0.435055 0 0.247559 0.446143 0.247559 0.938571C0.247559 1.81543 1.36004 6.17143 5.4287 11.9327C8.14114 15.867 11.9598 18 15.4385 18C17.5247 18 17.7822 17.5269 17.7822 16.7104V13.7366C17.7822 12.789 17.9797 12.6 18.6409 12.6C19.1284 12.6 19.9621 12.8469 21.9096 14.7433C24.1346 16.992 24.5008 18 25.7533 18H29.0345C29.9719 18 30.4419 17.5269 30.1719 16.5909C29.8744 15.66 28.812 14.3087 27.4032 12.7054C26.6383 11.7926 25.4908 10.809 25.142 10.3166C24.6558 9.68529 24.7945 9.40371 25.142 8.84186C25.142 8.84186 29.142 3.15129 29.5582 1.21886" fill="#659D2E"/>
</svg>
